{"glyphs":{"0":{"ha":882,"x_min":0,"x_max":746,"o":"m 203 678 l 203 610 l 136 610 l 136 203 l 203 203 l 203 136 l 543 136 l 543 203 l 610 203 l 610 610 l 543 610 l 543 678 l 203 678 m 746 136 l 678 136 l 678 68 l 610 68 l 610 0 l 136 0 l 136 68 l 68 68 l 68 136 l 0 136 l 0 678 l 68 678 l 68 746 l 136 746 l 136 814 l 610 814 l 610 746 l 678 746 l 678 678 l 746 678 l 746 136 z "},"1":{"ha":543,"x_min":0,"x_max":408,"o":"m 407 136 l 407 0 l 0 0 l 0 136 l 136 136 l 136 610 l 0 610 l 0 678 l 68 678 l 68 746 l 136 746 l 136 814 l 271 814 l 271 136 l 407 136 z "},"2":{"ha":882,"x_min":0,"x_max":746,"o":"m 746 136 l 746 0 l 0 0 l 0 339 l 68 339 l 68 407 l 136 407 l 136 475 l 543 475 l 543 543 l 610 543 l 610 610 l 543 610 l 543 678 l 203 678 l 203 610 l 136 610 l 136 543 l 0 543 l 0 678 l 68 678 l 68 746 l 136 746 l 136 814 l 610 814 l 610 746 l 678 746 l 678 678 l 746 678 l 746 475 l 678 475 l 678 407 l 610 407 l 610 339 l 203 339 l 203 271 l 136 271 l 136 136 l 746 136 z "},"3":{"ha":882,"x_min":0,"x_max":746,"o":"m 136 475 l 543 475 l 543 543 l 610 543 l 610 610 l 543 610 l 543 678 l 203 678 l 203 610 l 136 610 l 136 543 l 0 543 l 0 678 l 68 678 l 68 746 l 136 746 l 136 814 l 610 814 l 610 746 l 678 746 l 678 678 l 746 678 l 746 475 l 678 475 l 678 339 l 746 339 l 746 136 l 678 136 l 678 68 l 610 68 l 610 0 l 136 0 l 136 68 l 68 68 l 68 136 l 0 136 l 0 271 l 136 271 l 136 203 l 203 203 l 203 136 l 543 136 l 543 203 l 610 203 l 610 271 l 543 271 l 543 339 l 136 339 l 136 475 z "},"4":{"ha":882,"x_min":0,"x_max":746,"o":"m 407 610 l 339 610 l 339 543 l 271 543 l 271 475 l 203 475 l 203 407 l 475 407 l 475 678 l 407 678 l 407 610 m 0 475 l 68 475 l 68 543 l 136 543 l 136 610 l 203 610 l 203 678 l 271 678 l 271 746 l 339 746 l 339 814 l 610 814 l 610 407 l 746 407 l 746 271 l 610 271 l 610 0 l 475 0 l 475 271 l 0 271 l 0 475 z "},"5":{"ha":882,"x_min":0,"x_max":746,"o":"m 746 678 l 136 678 l 136 543 l 610 543 l 610 475 l 678 475 l 678 407 l 746 407 l 746 136 l 678 136 l 678 68 l 610 68 l 610 0 l 136 0 l 136 68 l 68 68 l 68 136 l 0 136 l 0 271 l 136 271 l 136 203 l 203 203 l 203 136 l 543 136 l 543 203 l 610 203 l 610 339 l 543 339 l 543 407 l 0 407 l 0 814 l 746 814 l 746 678 z "},"6":{"ha":882,"x_min":0,"x_max":746,"o":"m 203 407 l 203 339 l 136 339 l 136 203 l 203 203 l 203 136 l 543 136 l 543 203 l 610 203 l 610 339 l 543 339 l 543 407 l 203 407 m 203 678 l 203 610 l 136 610 l 136 543 l 610 543 l 610 475 l 678 475 l 678 407 l 746 407 l 746 136 l 678 136 l 678 68 l 610 68 l 610 0 l 136 0 l 136 68 l 68 68 l 68 136 l 0 136 l 0 678 l 68 678 l 68 746 l 136 746 l 136 814 l 678 814 l 678 746 l 746 746 l 746 610 l 610 610 l 610 678 l 203 678 z "},"7":{"ha":882,"x_min":0,"x_max":746,"o":"m 678 610 l 678 543 l 610 543 l 610 475 l 543 475 l 543 407 l 475 407 l 475 339 l 407 339 l 407 0 l 271 0 l 271 407 l 339 407 l 339 475 l 407 475 l 407 543 l 475 543 l 475 610 l 543 610 l 543 678 l 136 678 l 136 610 l 0 610 l 0 814 l 746 814 l 746 610 l 678 610 z "},"8":{"ha":882,"x_min":0,"x_max":746,"o":"m 203 678 l 203 610 l 136 610 l 136 543 l 203 543 l 203 475 l 543 475 l 543 543 l 610 543 l 610 610 l 543 610 l 543 678 l 203 678 m 203 339 l 203 271 l 136 271 l 136 203 l 203 203 l 203 136 l 543 136 l 543 203 l 610 203 l 610 271 l 543 271 l 543 339 l 203 339 m 746 475 l 678 475 l 678 339 l 746 339 l 746 136 l 678 136 l 678 68 l 610 68 l 610 0 l 136 0 l 136 68 l 68 68 l 68 136 l 0 136 l 0 339 l 68 339 l 68 475 l 0 475 l 0 678 l 68 678 l 68 746 l 136 746 l 136 814 l 610 814 l 610 746 l 678 746 l 678 678 l 746 678 l 746 475 z "},"9":{"ha":882,"x_min":0,"x_max":746,"o":"m 543 407 l 543 475 l 610 475 l 610 610 l 543 610 l 543 678 l 203 678 l 203 610 l 136 610 l 136 475 l 203 475 l 203 407 l 543 407 m 543 136 l 543 203 l 610 203 l 610 271 l 136 271 l 136 339 l 68 339 l 68 407 l 0 407 l 0 678 l 68 678 l 68 746 l 136 746 l 136 814 l 610 814 l 610 746 l 678 746 l 678 678 l 746 678 l 746 136 l 678 136 l 678 68 l 610 68 l 610 0 l 68 0 l 68 68 l 0 68 l 0 203 l 136 203 l 136 136 l 543 136 z "}," ":{"ha":814,"x_min":0,"x_max":0,"o":""}," ":{"ha":814,"x_min":0,"x_max":0,"o":""},"!":{"ha":271,"x_min":0,"x_max":136,"o":"m 0 136 l 136 136 l 136 0 l 0 0 l 0 136 m 0 271 l 0 814 l 136 814 l 136 271 l 0 271 z "},"\"":{"ha":610,"x_min":0,"x_max":475,"o":"m 0 814 l 136 814 l 136 678 l 136 543 l 0 543 l 0 678 l 0 814 m 339 814 l 475 814 l 475 678 l 475 543 l 407 543 l 339 543 l 339 678 l 339 814 z "},"#":{"ha":882,"x_min":0,"x_max":746,"o":"m 271 475 l 271 339 l 475 339 l 475 475 l 271 475 m 610 475 l 610 339 l 746 339 l 746 203 l 610 203 l 610 0 l 475 0 l 475 203 l 271 203 l 271 0 l 136 0 l 136 203 l 0 203 l 0 339 l 136 339 l 136 475 l 0 475 l 0 610 l 136 610 l 136 814 l 271 814 l 271 610 l 475 610 l 475 814 l 610 814 l 610 610 l 746 610 l 746 475 l 610 475 z "},"$":{"ha":814,"x_min":0,"x_max":678,"o":"m 203 203 l 203 136 l 475 136 l 475 271 l 136 271 l 136 339 l 68 339 l 68 407 l 0 407 l 0 543 l 68 543 l 68 610 l 136 610 l 136 678 l 271 678 l 271 814 l 407 814 l 407 678 l 543 678 l 543 610 l 610 610 l 610 543 l 678 543 l 678 475 l 475 475 l 475 543 l 203 543 l 203 407 l 543 407 l 543 339 l 610 339 l 610 271 l 678 271 l 678 136 l 610 136 l 610 68 l 543 68 l 543 0 l 407 0 l 407 -136 l 271 -136 l 271 0 l 136 0 l 136 68 l 68 68 l 68 136 l 0 136 l 0 203 l 203 203 z "},"%":{"ha":949,"x_min":0,"x_max":814,"o":"m 271 678 l 203 678 l 203 610 l 136 610 l 136 543 l 203 543 l 203 475 l 271 475 l 271 543 l 339 543 l 339 610 l 271 610 l 271 678 m 610 339 l 543 339 l 543 271 l 475 271 l 475 203 l 543 203 l 543 136 l 610 136 l 610 203 l 678 203 l 678 271 l 610 271 l 610 339 m 68 203 l 136 203 l 136 271 l 203 271 l 203 339 l 136 339 l 136 407 l 68 407 l 68 475 l 0 475 l 0 678 l 68 678 l 68 746 l 136 746 l 136 814 l 339 814 l 339 746 l 407 746 l 407 678 l 475 678 l 475 610 l 543 610 l 543 678 l 610 678 l 610 746 l 678 746 l 678 814 l 814 814 l 814 678 l 746 678 l 746 610 l 678 610 l 678 543 l 610 543 l 610 475 l 678 475 l 678 407 l 746 407 l 746 339 l 814 339 l 814 136 l 746 136 l 746 68 l 678 68 l 678 0 l 475 0 l 475 68 l 407 68 l 407 136 l 339 136 l 339 203 l 271 203 l 271 136 l 203 136 l 203 68 l 136 68 l 136 0 l 0 0 l 0 136 l 68 136 l 68 203 z "},"&":{"ha":882,"x_min":0,"x_max":746,"o":"m 407 339 l 203 339 l 203 271 l 136 271 l 136 203 l 203 203 l 203 136 l 339 136 l 339 203 l 407 203 l 407 339 m 746 136 l 746 0 l 543 0 l 543 68 l 407 68 l 407 0 l 136 0 l 136 68 l 68 68 l 68 136 l 0 136 l 0 339 l 68 339 l 68 475 l 0 475 l 0 678 l 68 678 l 68 746 l 136 746 l 136 814 l 339 814 l 339 678 l 203 678 l 203 610 l 136 610 l 136 543 l 203 543 l 203 475 l 407 475 l 407 814 l 543 814 l 543 475 l 746 475 l 746 339 l 543 339 l 543 203 l 610 203 l 610 136 l 746 136 z "},"'":{"ha":271,"x_min":0,"x_max":136,"o":"m 0 814 l 136 814 l 136 678 l 136 543 l 0 543 l 0 678 l 0 814 z "},"(":{"ha":407,"x_min":0,"x_max":271,"o":"m 271 136 l 271 0 l 136 0 l 136 68 l 68 68 l 68 136 l 0 136 l 0 678 l 68 678 l 68 746 l 136 746 l 136 814 l 271 814 l 271 678 l 203 678 l 203 610 l 136 610 l 136 203 l 203 203 l 203 136 l 271 136 z "},")":{"ha":407,"x_min":0,"x_max":271,"o":"m 0 136 l 0 0 l 136 0 l 136 68 l 203 68 l 203 136 l 271 136 l 271 678 l 203 678 l 203 746 l 136 746 l 136 814 l 0 814 l 0 678 l 68 678 l 68 610 l 136 610 l 136 203 l 68 203 l 68 136 l 0 136 z "},"*":{"ha":814,"x_min":0,"x_max":678,"o":"m 543 68 l 543 136 l 475 136 l 475 203 l 407 203 l 407 0 l 271 0 l 271 203 l 203 203 l 203 136 l 136 136 l 136 68 l 0 68 l 0 136 l 0 203 l 68 203 l 68 271 l 136 271 l 136 339 l 203 339 l 203 407 l 203 475 l 136 475 l 136 543 l 68 543 l 68 610 l 0 610 l 0 678 l 0 746 l 136 746 l 136 678 l 203 678 l 203 610 l 271 610 l 271 814 l 407 814 l 407 610 l 475 610 l 475 678 l 543 678 l 543 746 l 678 746 l 678 678 l 678 610 l 610 610 l 610 543 l 543 543 l 543 475 l 475 475 l 475 407 l 475 339 l 543 339 l 543 271 l 610 271 l 610 203 l 678 203 l 678 136 l 678 68 l 543 68 z "},"+":{"ha":678,"x_min":0,"x_max":543,"o":"m 0 339 l 0 475 l 203 475 l 203 678 l 339 678 l 339 475 l 543 475 l 543 339 l 339 339 l 339 136 l 203 136 l 203 339 l 0 339 z "},",":{"ha":407,"x_min":0,"x_max":271,"o":"m 136 136 l 271 136 l 271 0 l 203 0 l 203 -68 l 136 -68 l 136 -136 l 0 -136 l 0 0 l 68 0 l 68 68 l 136 68 l 136 136 z "},"-":{"ha":678,"x_min":0,"x_max":543,"o":"m 0 339 l 0 475 l 543 475 l 543 339 l 0 339 z "},"­":{"ha":678,"x_min":0,"x_max":543,"o":"m 0 339 l 0 475 l 543 475 l 543 339 l 0 339 z "},".":{"ha":271,"x_min":0,"x_max":136,"o":"m 0 136 l 136 136 l 136 0 l 0 0 l 0 136 z "},"/":{"ha":949,"x_min":0,"x_max":814,"o":"m 68 203 l 136 203 l 136 271 l 203 271 l 203 339 l 271 339 l 271 407 l 339 407 l 339 475 l 407 475 l 407 543 l 475 543 l 475 610 l 543 610 l 543 678 l 610 678 l 610 746 l 678 746 l 678 814 l 746 814 l 814 814 l 814 746 l 814 678 l 746 678 l 746 610 l 678 610 l 678 543 l 610 543 l 610 475 l 543 475 l 543 407 l 475 407 l 475 339 l 407 339 l 407 271 l 339 271 l 339 203 l 271 203 l 271 136 l 203 136 l 203 68 l 136 68 l 136 0 l 0 0 l 0 68 l 0 136 l 68 136 l 68 203 z "},":":{"ha":271,"x_min":0,"x_max":136,"o":"m 0 678 l 136 678 l 136 543 l 0 543 l 0 678 m 0 271 l 136 271 l 136 136 l 0 136 l 0 271 z "},";":{"ha":407,"x_min":0,"x_max":271,"o":"m 136 203 l 136 271 l 271 271 l 271 136 l 203 136 l 203 68 l 136 68 l 136 0 l 0 0 l 0 136 l 68 136 l 68 203 l 136 203 m 136 678 l 271 678 l 271 543 l 136 543 l 136 678 z "},"<":{"ha":543,"x_min":0,"x_max":408,"o":"m 407 610 l 339 610 l 339 543 l 271 543 l 271 475 l 203 475 l 203 407 l 136 407 l 136 339 l 203 339 l 203 271 l 271 271 l 271 203 l 339 203 l 339 136 l 407 136 l 407 0 l 271 0 l 271 68 l 203 68 l 203 136 l 136 136 l 136 203 l 68 203 l 68 271 l 0 271 l 0 475 l 68 475 l 68 543 l 136 543 l 136 610 l 203 610 l 203 678 l 271 678 l 271 746 l 407 746 l 407 610 z "},"=":{"ha":678,"x_min":0,"x_max":543,"o":"m 0 475 l 0 610 l 543 610 l 543 475 l 0 475 m 0 203 l 0 339 l 543 339 l 543 203 l 0 203 z "},">":{"ha":543,"x_min":0,"x_max":408,"o":"m 0 610 l 68 610 l 68 543 l 136 543 l 136 475 l 203 475 l 203 407 l 271 407 l 271 339 l 203 339 l 203 271 l 136 271 l 136 203 l 68 203 l 68 136 l 0 136 l 0 0 l 136 0 l 136 68 l 203 68 l 203 136 l 271 136 l 271 203 l 339 203 l 339 271 l 407 271 l 407 475 l 339 475 l 339 543 l 271 543 l 271 610 l 203 610 l 203 678 l 136 678 l 136 746 l 0 746 l 0 610 z "},"?":{"ha":882,"x_min":0,"x_max":746,"o":"m 271 136 l 407 136 l 407 0 l 271 0 l 271 136 m 271 407 l 543 407 l 543 475 l 610 475 l 610 610 l 543 610 l 543 678 l 203 678 l 203 610 l 136 610 l 136 543 l 0 543 l 0 678 l 68 678 l 68 746 l 136 746 l 136 814 l 610 814 l 610 746 l 678 746 l 678 678 l 746 678 l 746 407 l 678 407 l 678 339 l 610 339 l 610 271 l 271 271 l 271 407 z "},"@":{"ha":882,"x_min":0,"x_max":746,"o":"m 543 543 l 407 543 l 407 475 l 339 475 l 339 407 l 407 407 l 407 339 l 543 339 l 543 543 m 203 678 l 203 610 l 136 610 l 136 203 l 203 203 l 203 136 l 610 136 l 610 203 l 746 203 l 746 68 l 678 68 l 678 0 l 136 0 l 136 68 l 68 68 l 68 136 l 0 136 l 0 678 l 68 678 l 68 746 l 136 746 l 136 814 l 610 814 l 610 746 l 678 746 l 678 678 l 746 678 l 746 271 l 271 271 l 271 339 l 203 339 l 203 543 l 271 543 l 271 610 l 543 610 l 543 678 l 203 678 z "},"A":{"ha":882,"x_min":0,"x_max":746,"o":"m 610 407 l 610 475 l 543 475 l 543 543 l 475 543 l 475 610 l 407 610 l 407 678 l 339 678 l 339 610 l 271 610 l 271 543 l 203 543 l 203 475 l 136 475 l 136 407 l 610 407 m 0 543 l 68 543 l 68 610 l 136 610 l 136 678 l 203 678 l 203 746 l 271 746 l 271 814 l 475 814 l 475 746 l 543 746 l 543 678 l 610 678 l 610 610 l 678 610 l 678 543 l 746 543 l 746 0 l 610 0 l 610 271 l 136 271 l 136 0 l 0 0 l 0 543 z "},"B":{"ha":882,"x_min":0,"x_max":746,"o":"m 136 678 l 136 475 l 543 475 l 543 543 l 610 543 l 610 610 l 543 610 l 543 678 l 136 678 m 543 136 l 543 203 l 610 203 l 610 271 l 543 271 l 543 339 l 136 339 l 136 136 l 543 136 m 0 814 l 610 814 l 610 746 l 678 746 l 678 678 l 746 678 l 746 475 l 678 475 l 678 339 l 746 339 l 746 136 l 678 136 l 678 68 l 610 68 l 610 0 l 0 0 l 0 814 z "},"C":{"ha":882,"x_min":0,"x_max":746,"o":"m 203 678 l 203 610 l 136 610 l 136 203 l 203 203 l 203 136 l 543 136 l 543 203 l 610 203 l 610 271 l 746 271 l 746 136 l 678 136 l 678 68 l 610 68 l 610 0 l 136 0 l 136 68 l 68 68 l 68 136 l 0 136 l 0 678 l 68 678 l 68 746 l 136 746 l 136 814 l 610 814 l 610 746 l 678 746 l 678 678 l 746 678 l 746 543 l 610 543 l 610 610 l 543 610 l 543 678 l 203 678 z "},"D":{"ha":882,"x_min":0,"x_max":746,"o":"m 136 678 l 136 136 l 543 136 l 543 203 l 610 203 l 610 610 l 543 610 l 543 678 l 136 678 m 0 814 l 610 814 l 610 746 l 678 746 l 678 678 l 746 678 l 746 136 l 678 136 l 678 68 l 610 68 l 610 0 l 0 0 l 0 814 z "},"E":{"ha":882,"x_min":0,"x_max":746,"o":"m 0 814 l 746 814 l 746 678 l 136 678 l 136 475 l 610 475 l 610 339 l 136 339 l 136 136 l 746 136 l 746 0 l 0 0 l 0 814 z "},"F":{"ha":882,"x_min":0,"x_max":746,"o":"m 0 814 l 746 814 l 746 678 l 136 678 l 136 475 l 610 475 l 610 339 l 136 339 l 136 0 l 0 0 l 0 814 z "},"G":{"ha":882,"x_min":0,"x_max":746,"o":"m 203 678 l 203 610 l 136 610 l 136 203 l 203 203 l 203 136 l 543 136 l 543 203 l 610 203 l 610 339 l 271 339 l 271 475 l 746 475 l 746 136 l 678 136 l 678 68 l 610 68 l 610 0 l 136 0 l 136 68 l 68 68 l 68 136 l 0 136 l 0 678 l 68 678 l 68 746 l 136 746 l 136 814 l 678 814 l 678 746 l 746 746 l 746 610 l 610 610 l 610 678 l 203 678 z "},"H":{"ha":882,"x_min":0,"x_max":746,"o":"m 610 339 l 136 339 l 136 0 l 0 0 l 0 814 l 136 814 l 136 475 l 610 475 l 610 814 l 746 814 l 746 0 l 610 0 l 610 339 z "},"I":{"ha":543,"x_min":0,"x_max":408,"o":"m 407 136 l 407 0 l 0 0 l 0 136 l 136 136 l 136 678 l 0 678 l 0 814 l 407 814 l 407 678 l 271 678 l 271 136 l 407 136 z "},"J":{"ha":882,"x_min":0,"x_max":746,"o":"m 136 339 l 136 203 l 203 203 l 203 136 l 543 136 l 543 203 l 610 203 l 610 678 l 475 678 l 475 814 l 746 814 l 746 136 l 678 136 l 678 68 l 610 68 l 610 0 l 136 0 l 136 68 l 68 68 l 68 136 l 0 136 l 0 339 l 136 339 z "},"K":{"ha":882,"x_min":0,"x_max":746,"o":"m 746 678 l 678 678 l 678 610 l 610 610 l 610 543 l 543 543 l 543 475 l 475 475 l 475 339 l 543 339 l 543 271 l 610 271 l 610 203 l 678 203 l 678 136 l 746 136 l 746 0 l 610 0 l 610 68 l 543 68 l 543 136 l 475 136 l 475 203 l 407 203 l 407 271 l 271 271 l 271 203 l 203 203 l 203 136 l 136 136 l 136 0 l 0 0 l 0 814 l 136 814 l 136 339 l 203 339 l 203 407 l 271 407 l 271 475 l 339 475 l 339 543 l 407 543 l 407 610 l 475 610 l 475 678 l 543 678 l 543 746 l 610 746 l 610 814 l 746 814 l 746 678 z "},"L":{"ha":882,"x_min":0,"x_max":746,"o":"m 0 0 l 0 814 l 136 814 l 136 136 l 610 136 l 610 271 l 746 271 l 746 0 l 0 0 z "},"M":{"ha":882,"x_min":0,"x_max":746,"o":"m 136 0 l 0 0 l 0 814 l 136 814 l 136 746 l 203 746 l 203 678 l 271 678 l 271 610 l 339 610 l 339 543 l 407 543 l 407 610 l 475 610 l 475 678 l 543 678 l 543 746 l 610 746 l 610 814 l 746 814 l 746 0 l 610 0 l 610 543 l 543 543 l 543 475 l 475 475 l 475 407 l 407 407 l 407 339 l 339 339 l 339 407 l 271 407 l 271 475 l 203 475 l 203 543 l 136 543 l 136 0 z "},"N":{"ha":882,"x_min":0,"x_max":746,"o":"m 610 814 l 746 814 l 746 0 l 610 0 l 610 136 l 543 136 l 543 203 l 475 203 l 475 271 l 407 271 l 407 339 l 339 339 l 339 407 l 271 407 l 271 475 l 203 475 l 203 543 l 136 543 l 136 0 l 0 0 l 0 814 l 136 814 l 136 746 l 203 746 l 203 678 l 271 678 l 271 610 l 339 610 l 339 543 l 407 543 l 407 475 l 475 475 l 475 407 l 543 407 l 543 339 l 610 339 l 610 814 z "},"O":{"ha":882,"x_min":0,"x_max":746,"o":"m 203 678 l 203 610 l 136 610 l 136 203 l 203 203 l 203 136 l 543 136 l 543 203 l 610 203 l 610 610 l 543 610 l 543 678 l 203 678 m 746 136 l 678 136 l 678 68 l 610 68 l 610 0 l 136 0 l 136 68 l 68 68 l 68 136 l 0 136 l 0 678 l 68 678 l 68 746 l 136 746 l 136 814 l 610 814 l 610 746 l 678 746 l 678 678 l 746 678 l 746 136 z "},"P":{"ha":882,"x_min":0,"x_max":747,"o":"m 136 678 l 136 407 l 543 407 l 543 475 l 610 475 l 610 610 l 543 610 l 543 678 l 136 678 m 0 814 l 610 814 l 610 746 l 678 746 l 678 678 l 746 678 l 746 407 l 678 407 l 678 339 l 610 339 l 610 271 l 136 271 l 136 0 l 0 0 l 0 814 z "},"Q":{"ha":882,"x_min":0,"x_max":746,"o":"m 203 678 l 203 610 l 136 610 l 136 203 l 203 203 l 203 136 l 475 136 l 475 203 l 407 203 l 407 271 l 339 271 l 339 407 l 475 407 l 475 339 l 543 339 l 543 271 l 610 271 l 610 610 l 543 610 l 543 678 l 203 678 m 136 0 l 136 68 l 68 68 l 68 136 l 0 136 l 0 678 l 68 678 l 68 746 l 136 746 l 136 814 l 610 814 l 610 746 l 678 746 l 678 678 l 746 678 l 746 0 l 136 0 z "},"R":{"ha":882,"x_min":0,"x_max":746,"o":"m 136 678 l 136 407 l 543 407 l 543 475 l 610 475 l 610 610 l 543 610 l 543 678 l 136 678 m 0 814 l 610 814 l 610 746 l 678 746 l 678 678 l 746 678 l 746 407 l 678 407 l 678 339 l 610 339 l 610 203 l 678 203 l 678 136 l 746 136 l 746 0 l 610 0 l 610 68 l 543 68 l 543 136 l 475 136 l 475 203 l 407 203 l 407 271 l 136 271 l 136 0 l 0 0 l 0 814 z "},"S":{"ha":882,"x_min":0,"x_max":746,"o":"m 136 271 l 136 203 l 203 203 l 203 136 l 543 136 l 543 203 l 610 203 l 610 271 l 543 271 l 543 339 l 136 339 l 136 407 l 68 407 l 68 475 l 0 475 l 0 678 l 68 678 l 68 746 l 136 746 l 136 814 l 610 814 l 610 746 l 678 746 l 678 678 l 746 678 l 746 543 l 610 543 l 610 610 l 543 610 l 543 678 l 203 678 l 203 610 l 136 610 l 136 543 l 203 543 l 203 475 l 610 475 l 610 407 l 678 407 l 678 339 l 746 339 l 746 136 l 678 136 l 678 68 l 610 68 l 610 0 l 136 0 l 136 68 l 68 68 l 68 136 l 0 136 l 0 271 l 136 271 z "},"T":{"ha":814,"x_min":0,"x_max":678,"o":"m 0 678 l 0 814 l 678 814 l 678 678 l 407 678 l 407 0 l 271 0 l 271 678 l 0 678 z "},"U":{"ha":882,"x_min":0,"x_max":746,"o":"m 136 814 l 136 203 l 203 203 l 203 136 l 543 136 l 543 203 l 610 203 l 610 814 l 746 814 l 746 136 l 678 136 l 678 68 l 610 68 l 610 0 l 136 0 l 136 68 l 68 68 l 68 136 l 0 136 l 0 814 l 136 814 z "},"V":{"ha":882,"x_min":0,"x_max":746,"o":"m 746 271 l 678 271 l 678 203 l 610 203 l 610 136 l 543 136 l 543 68 l 475 68 l 475 0 l 271 0 l 271 68 l 203 68 l 203 136 l 136 136 l 136 203 l 68 203 l 68 271 l 0 271 l 0 814 l 136 814 l 136 339 l 203 339 l 203 271 l 271 271 l 271 203 l 339 203 l 339 136 l 407 136 l 407 203 l 475 203 l 475 271 l 543 271 l 543 339 l 610 339 l 610 814 l 746 814 l 746 271 z "},"W":{"ha":882,"x_min":0,"x_max":746,"o":"m 610 814 l 746 814 l 746 0 l 610 0 l 610 68 l 543 68 l 543 136 l 475 136 l 475 203 l 407 203 l 407 271 l 339 271 l 339 203 l 271 203 l 271 136 l 203 136 l 203 68 l 136 68 l 136 0 l 0 0 l 0 814 l 136 814 l 136 271 l 203 271 l 203 339 l 271 339 l 271 407 l 339 407 l 339 475 l 407 475 l 407 407 l 475 407 l 475 339 l 543 339 l 543 271 l 610 271 l 610 814 z "},"X":{"ha":882,"x_min":0,"x_max":746,"o":"m 746 678 l 678 678 l 678 610 l 610 610 l 610 543 l 543 543 l 543 475 l 475 475 l 475 339 l 543 339 l 543 271 l 610 271 l 610 203 l 678 203 l 678 136 l 746 136 l 746 0 l 610 0 l 610 68 l 543 68 l 543 136 l 475 136 l 475 203 l 407 203 l 407 271 l 339 271 l 339 203 l 271 203 l 271 136 l 203 136 l 203 68 l 136 68 l 136 0 l 0 0 l 0 136 l 68 136 l 68 203 l 136 203 l 136 271 l 203 271 l 203 339 l 271 339 l 271 475 l 203 475 l 203 543 l 136 543 l 136 610 l 68 610 l 68 678 l 0 678 l 0 814 l 136 814 l 136 746 l 203 746 l 203 678 l 271 678 l 271 610 l 339 610 l 339 543 l 407 543 l 407 610 l 475 610 l 475 678 l 543 678 l 543 746 l 610 746 l 610 814 l 746 814 l 746 678 z "},"Y":{"ha":814,"x_min":0,"x_max":678,"o":"m 678 543 l 610 543 l 610 475 l 543 475 l 543 407 l 475 407 l 475 339 l 407 339 l 407 0 l 271 0 l 271 339 l 203 339 l 203 407 l 136 407 l 136 475 l 68 475 l 68 543 l 0 543 l 0 814 l 136 814 l 136 610 l 203 610 l 203 543 l 271 543 l 271 475 l 407 475 l 407 543 l 475 543 l 475 610 l 543 610 l 543 814 l 678 814 l 678 543 z "},"Z":{"ha":882,"x_min":0,"x_max":746,"o":"m 0 678 l 0 814 l 746 814 l 746 678 l 678 678 l 678 610 l 610 610 l 610 543 l 543 543 l 543 475 l 475 475 l 475 407 l 407 407 l 407 339 l 339 339 l 339 271 l 271 271 l 271 203 l 203 203 l 203 136 l 746 136 l 746 0 l 0 0 l 0 203 l 68 203 l 68 271 l 136 271 l 136 339 l 203 339 l 203 407 l 271 407 l 271 475 l 339 475 l 339 543 l 407 543 l 407 610 l 475 610 l 475 678 l 0 678 z "},"[":{"ha":407,"x_min":0,"x_max":271,"o":"m 271 136 l 271 0 l 0 0 l 0 814 l 271 814 l 271 678 l 136 678 l 136 136 l 271 136 z "},"\\":{"ha":949,"x_min":0,"x_max":814,"o":"m 68 610 l 68 678 l 0 678 l 0 814 l 136 814 l 136 746 l 203 746 l 203 678 l 271 678 l 271 610 l 339 610 l 339 543 l 407 543 l 407 475 l 475 475 l 475 407 l 543 407 l 543 339 l 610 339 l 610 271 l 678 271 l 678 203 l 746 203 l 746 136 l 814 136 l 814 0 l 678 0 l 678 68 l 610 68 l 610 136 l 543 136 l 543 203 l 475 203 l 475 271 l 407 271 l 407 339 l 339 339 l 339 407 l 271 407 l 271 475 l 203 475 l 203 543 l 136 543 l 136 610 l 68 610 z "},"]":{"ha":407,"x_min":0,"x_max":271,"o":"m 0 678 l 0 814 l 271 814 l 271 0 l 0 0 l 0 136 l 136 136 l 136 678 l 0 678 z "},"^":{"ha":882,"x_min":0,"x_max":746,"o":"m 610 543 l 610 610 l 543 610 l 543 678 l 475 678 l 475 746 l 407 746 l 407 814 l 339 814 l 339 746 l 271 746 l 271 678 l 203 678 l 203 610 l 136 610 l 136 543 l 0 543 l 0 678 l 68 678 l 68 746 l 136 746 l 136 814 l 203 814 l 203 882 l 271 882 l 271 949 l 475 949 l 475 882 l 543 882 l 543 814 l 610 814 l 610 746 l 678 746 l 678 678 l 746 678 l 746 543 l 610 543 z "},"_":{"ha":882,"x_min":0,"x_max":746,"o":"m 0 0 l 0 136 l 746 136 l 746 0 l 0 0 z "},"`":{"ha":407,"x_min":0,"x_max":271,"o":"m 0 678 l 0 814 l 136 814 l 136 746 l 203 746 l 203 678 l 271 678 l 271 543 l 136 543 l 136 610 l 68 610 l 68 678 l 0 678 z "},"a":{"ha":882,"x_min":0,"x_max":746,"o":"m 610 407 l 610 475 l 543 475 l 543 543 l 475 543 l 475 610 l 407 610 l 407 678 l 339 678 l 339 610 l 271 610 l 271 543 l 203 543 l 203 475 l 136 475 l 136 407 l 610 407 m 0 543 l 68 543 l 68 610 l 136 610 l 136 678 l 203 678 l 203 746 l 271 746 l 271 814 l 475 814 l 475 746 l 543 746 l 543 678 l 610 678 l 610 610 l 678 610 l 678 543 l 746 543 l 746 0 l 610 0 l 610 271 l 136 271 l 136 0 l 0 0 l 0 543 z "},"b":{"ha":882,"x_min":0,"x_max":746,"o":"m 136 678 l 136 475 l 543 475 l 543 543 l 610 543 l 610 610 l 543 610 l 543 678 l 136 678 m 543 136 l 543 203 l 610 203 l 610 271 l 543 271 l 543 339 l 136 339 l 136 136 l 543 136 m 0 814 l 610 814 l 610 746 l 678 746 l 678 678 l 746 678 l 746 475 l 678 475 l 678 339 l 746 339 l 746 136 l 678 136 l 678 68 l 610 68 l 610 0 l 0 0 l 0 814 z "},"c":{"ha":882,"x_min":0,"x_max":746,"o":"m 203 678 l 203 610 l 136 610 l 136 203 l 203 203 l 203 136 l 543 136 l 543 203 l 610 203 l 610 271 l 746 271 l 746 136 l 678 136 l 678 68 l 610 68 l 610 0 l 136 0 l 136 68 l 68 68 l 68 136 l 0 136 l 0 678 l 68 678 l 68 746 l 136 746 l 136 814 l 610 814 l 610 746 l 678 746 l 678 678 l 746 678 l 746 543 l 610 543 l 610 610 l 543 610 l 543 678 l 203 678 z "},"d":{"ha":882,"x_min":0,"x_max":746,"o":"m 136 678 l 136 136 l 543 136 l 543 203 l 610 203 l 610 610 l 543 610 l 543 678 l 136 678 m 0 814 l 610 814 l 610 746 l 678 746 l 678 678 l 746 678 l 746 136 l 678 136 l 678 68 l 610 68 l 610 0 l 0 0 l 0 814 z "},"e":{"ha":882,"x_min":0,"x_max":746,"o":"m 0 814 l 746 814 l 746 678 l 136 678 l 136 475 l 610 475 l 610 339 l 136 339 l 136 136 l 746 136 l 746 0 l 0 0 l 0 814 z "},"f":{"ha":882,"x_min":0,"x_max":746,"o":"m 0 814 l 746 814 l 746 678 l 136 678 l 136 475 l 610 475 l 610 339 l 136 339 l 136 0 l 0 0 l 0 814 z "},"g":{"ha":882,"x_min":0,"x_max":746,"o":"m 203 678 l 203 610 l 136 610 l 136 203 l 203 203 l 203 136 l 543 136 l 543 203 l 610 203 l 610 339 l 271 339 l 271 475 l 746 475 l 746 136 l 678 136 l 678 68 l 610 68 l 610 0 l 136 0 l 136 68 l 68 68 l 68 136 l 0 136 l 0 678 l 68 678 l 68 746 l 136 746 l 136 814 l 678 814 l 678 746 l 746 746 l 746 610 l 610 610 l 610 678 l 203 678 z "},"h":{"ha":882,"x_min":0,"x_max":746,"o":"m 610 339 l 136 339 l 136 0 l 0 0 l 0 814 l 136 814 l 136 475 l 610 475 l 610 814 l 746 814 l 746 0 l 610 0 l 610 339 z "},"i":{"ha":543,"x_min":0,"x_max":408,"o":"m 407 136 l 407 0 l 0 0 l 0 136 l 136 136 l 136 678 l 0 678 l 0 814 l 407 814 l 407 678 l 271 678 l 271 136 l 407 136 z "},"j":{"ha":882,"x_min":0,"x_max":746,"o":"m 136 339 l 136 203 l 203 203 l 203 136 l 543 136 l 543 203 l 610 203 l 610 678 l 475 678 l 475 814 l 746 814 l 746 136 l 678 136 l 678 68 l 610 68 l 610 0 l 136 0 l 136 68 l 68 68 l 68 136 l 0 136 l 0 339 l 136 339 z "},"k":{"ha":882,"x_min":0,"x_max":746,"o":"m 746 678 l 678 678 l 678 610 l 610 610 l 610 543 l 543 543 l 543 475 l 475 475 l 475 339 l 543 339 l 543 271 l 610 271 l 610 203 l 678 203 l 678 136 l 746 136 l 746 0 l 610 0 l 610 68 l 543 68 l 543 136 l 475 136 l 475 203 l 407 203 l 407 271 l 271 271 l 271 203 l 203 203 l 203 136 l 136 136 l 136 0 l 0 0 l 0 814 l 136 814 l 136 339 l 203 339 l 203 407 l 271 407 l 271 475 l 339 475 l 339 543 l 407 543 l 407 610 l 475 610 l 475 678 l 543 678 l 543 746 l 610 746 l 610 814 l 746 814 l 746 678 z "},"l":{"ha":882,"x_min":0,"x_max":746,"o":"m 0 0 l 0 814 l 136 814 l 136 136 l 610 136 l 610 271 l 746 271 l 746 0 l 0 0 z "},"m":{"ha":882,"x_min":0,"x_max":746,"o":"m 136 0 l 0 0 l 0 814 l 136 814 l 136 746 l 203 746 l 203 678 l 271 678 l 271 610 l 339 610 l 339 543 l 407 543 l 407 610 l 475 610 l 475 678 l 543 678 l 543 746 l 610 746 l 610 814 l 746 814 l 746 0 l 610 0 l 610 543 l 543 543 l 543 475 l 475 475 l 475 407 l 407 407 l 407 339 l 339 339 l 339 407 l 271 407 l 271 475 l 203 475 l 203 543 l 136 543 l 136 0 z "},"n":{"ha":882,"x_min":0,"x_max":746,"o":"m 610 814 l 746 814 l 746 0 l 610 0 l 610 136 l 543 136 l 543 203 l 475 203 l 475 271 l 407 271 l 407 339 l 339 339 l 339 407 l 271 407 l 271 475 l 203 475 l 203 543 l 136 543 l 136 0 l 0 0 l 0 814 l 136 814 l 136 746 l 203 746 l 203 678 l 271 678 l 271 610 l 339 610 l 339 543 l 407 543 l 407 475 l 475 475 l 475 407 l 543 407 l 543 339 l 610 339 l 610 814 z "},"o":{"ha":882,"x_min":0,"x_max":746,"o":"m 203 678 l 203 610 l 136 610 l 136 203 l 203 203 l 203 136 l 543 136 l 543 203 l 610 203 l 610 610 l 543 610 l 543 678 l 203 678 m 746 136 l 678 136 l 678 68 l 610 68 l 610 0 l 136 0 l 136 68 l 68 68 l 68 136 l 0 136 l 0 678 l 68 678 l 68 746 l 136 746 l 136 814 l 610 814 l 610 746 l 678 746 l 678 678 l 746 678 l 746 136 z "},"p":{"ha":882,"x_min":0,"x_max":747,"o":"m 136 678 l 136 407 l 543 407 l 543 475 l 610 475 l 610 610 l 543 610 l 543 678 l 136 678 m 0 814 l 610 814 l 610 746 l 678 746 l 678 678 l 746 678 l 746 407 l 678 407 l 678 339 l 610 339 l 610 271 l 136 271 l 136 0 l 0 0 l 0 814 z "},"q":{"ha":882,"x_min":0,"x_max":746,"o":"m 203 678 l 203 610 l 136 610 l 136 203 l 203 203 l 203 136 l 475 136 l 475 203 l 407 203 l 407 271 l 339 271 l 339 407 l 475 407 l 475 339 l 543 339 l 543 271 l 610 271 l 610 610 l 543 610 l 543 678 l 203 678 m 136 0 l 136 68 l 68 68 l 68 136 l 0 136 l 0 678 l 68 678 l 68 746 l 136 746 l 136 814 l 610 814 l 610 746 l 678 746 l 678 678 l 746 678 l 746 0 l 136 0 z "},"r":{"ha":882,"x_min":0,"x_max":746,"o":"m 136 678 l 136 407 l 543 407 l 543 475 l 610 475 l 610 610 l 543 610 l 543 678 l 136 678 m 0 814 l 610 814 l 610 746 l 678 746 l 678 678 l 746 678 l 746 407 l 678 407 l 678 339 l 610 339 l 610 203 l 678 203 l 678 136 l 746 136 l 746 0 l 610 0 l 610 68 l 543 68 l 543 136 l 475 136 l 475 203 l 407 203 l 407 271 l 136 271 l 136 0 l 0 0 l 0 814 z "},"s":{"ha":882,"x_min":0,"x_max":746,"o":"m 136 271 l 136 203 l 203 203 l 203 136 l 543 136 l 543 203 l 610 203 l 610 271 l 543 271 l 543 339 l 136 339 l 136 407 l 68 407 l 68 475 l 0 475 l 0 678 l 68 678 l 68 746 l 136 746 l 136 814 l 610 814 l 610 746 l 678 746 l 678 678 l 746 678 l 746 543 l 610 543 l 610 610 l 543 610 l 543 678 l 203 678 l 203 610 l 136 610 l 136 543 l 203 543 l 203 475 l 610 475 l 610 407 l 678 407 l 678 339 l 746 339 l 746 136 l 678 136 l 678 68 l 610 68 l 610 0 l 136 0 l 136 68 l 68 68 l 68 136 l 0 136 l 0 271 l 136 271 z "},"t":{"ha":814,"x_min":0,"x_max":678,"o":"m 0 678 l 0 814 l 678 814 l 678 678 l 407 678 l 407 0 l 271 0 l 271 678 l 0 678 z "},"u":{"ha":882,"x_min":0,"x_max":746,"o":"m 136 814 l 136 203 l 203 203 l 203 136 l 543 136 l 543 203 l 610 203 l 610 814 l 746 814 l 746 136 l 678 136 l 678 68 l 610 68 l 610 0 l 136 0 l 136 68 l 68 68 l 68 136 l 0 136 l 0 814 l 136 814 z "},"v":{"ha":882,"x_min":0,"x_max":746,"o":"m 746 271 l 678 271 l 678 203 l 610 203 l 610 136 l 543 136 l 543 68 l 475 68 l 475 0 l 271 0 l 271 68 l 203 68 l 203 136 l 136 136 l 136 203 l 68 203 l 68 271 l 0 271 l 0 814 l 136 814 l 136 339 l 203 339 l 203 271 l 271 271 l 271 203 l 339 203 l 339 136 l 407 136 l 407 203 l 475 203 l 475 271 l 543 271 l 543 339 l 610 339 l 610 814 l 746 814 l 746 271 z "},"w":{"ha":882,"x_min":0,"x_max":746,"o":"m 610 814 l 746 814 l 746 0 l 610 0 l 610 68 l 543 68 l 543 136 l 475 136 l 475 203 l 407 203 l 407 271 l 339 271 l 339 203 l 271 203 l 271 136 l 203 136 l 203 68 l 136 68 l 136 0 l 0 0 l 0 814 l 136 814 l 136 271 l 203 271 l 203 339 l 271 339 l 271 407 l 339 407 l 339 475 l 407 475 l 407 407 l 475 407 l 475 339 l 543 339 l 543 271 l 610 271 l 610 814 z "},"x":{"ha":882,"x_min":0,"x_max":746,"o":"m 746 678 l 678 678 l 678 610 l 610 610 l 610 543 l 543 543 l 543 475 l 475 475 l 475 339 l 543 339 l 543 271 l 610 271 l 610 203 l 678 203 l 678 136 l 746 136 l 746 0 l 610 0 l 610 68 l 543 68 l 543 136 l 475 136 l 475 203 l 407 203 l 407 271 l 339 271 l 339 203 l 271 203 l 271 136 l 203 136 l 203 68 l 136 68 l 136 0 l 0 0 l 0 136 l 68 136 l 68 203 l 136 203 l 136 271 l 203 271 l 203 339 l 271 339 l 271 475 l 203 475 l 203 543 l 136 543 l 136 610 l 68 610 l 68 678 l 0 678 l 0 814 l 136 814 l 136 746 l 203 746 l 203 678 l 271 678 l 271 610 l 339 610 l 339 543 l 407 543 l 407 610 l 475 610 l 475 678 l 543 678 l 543 746 l 610 746 l 610 814 l 746 814 l 746 678 z "},"y":{"ha":814,"x_min":0,"x_max":678,"o":"m 678 543 l 610 543 l 610 475 l 543 475 l 543 407 l 475 407 l 475 339 l 407 339 l 407 0 l 271 0 l 271 339 l 203 339 l 203 407 l 136 407 l 136 475 l 68 475 l 68 543 l 0 543 l 0 814 l 136 814 l 136 610 l 203 610 l 203 543 l 271 543 l 271 475 l 407 475 l 407 543 l 475 543 l 475 610 l 543 610 l 543 814 l 678 814 l 678 543 z "},"z":{"ha":882,"x_min":0,"x_max":746,"o":"m 0 678 l 0 814 l 746 814 l 746 678 l 678 678 l 678 610 l 610 610 l 610 543 l 543 543 l 543 475 l 475 475 l 475 407 l 407 407 l 407 339 l 339 339 l 339 271 l 271 271 l 271 203 l 203 203 l 203 136 l 746 136 l 746 0 l 0 0 l 0 203 l 68 203 l 68 271 l 136 271 l 136 339 l 203 339 l 203 407 l 271 407 l 271 475 l 339 475 l 339 543 l 407 543 l 407 610 l 475 610 l 475 678 l 0 678 z "},"{":{"ha":543,"x_min":0,"x_max":407,"o":"m 136 203 l 68 203 l 68 271 l 0 271 l 0 407 l 68 407 l 68 475 l 136 475 l 136 678 l 203 678 l 203 746 l 271 746 l 271 814 l 407 814 l 407 678 l 339 678 l 339 610 l 271 610 l 271 407 l 203 407 l 203 271 l 271 271 l 271 68 l 339 68 l 339 0 l 407 0 l 407 -136 l 271 -136 l 271 -68 l 203 -68 l 203 0 l 136 0 l 136 203 z "},"|":{"ha":271,"x_min":0,"x_max":136,"o":"m 136 814 l 136 0 l 0 0 l 0 543 l 0 814 l 68 814 l 136 814 z "},"}":{"ha":543,"x_min":0,"x_max":407,"o":"m 271 203 l 339 203 l 339 271 l 407 271 l 407 407 l 339 407 l 339 475 l 271 475 l 271 678 l 203 678 l 203 746 l 136 746 l 136 814 l 0 814 l 0 678 l 68 678 l 68 610 l 136 610 l 136 407 l 203 407 l 203 271 l 136 271 l 136 68 l 68 68 l 68 0 l 0 0 l 0 -136 l 136 -136 l 136 -68 l 203 -68 l 203 0 l 271 0 l 271 203 z "},"~":{"ha":678,"x_min":0,"x_max":543,"o":"m 271 475 l 271 543 l 136 543 l 136 475 l 68 475 l 68 407 l 0 407 l 0 271 l 136 271 l 136 339 l 271 339 l 271 271 l 407 271 l 407 339 l 475 339 l 475 407 l 543 407 l 543 543 l 407 543 l 407 475 l 271 475 z "},"¡":{"ha":271,"x_min":0,"x_max":136,"o":"m 136 678 l 0 678 l 0 814 l 136 814 l 136 678 m 136 543 l 136 0 l 0 0 l 0 543 l 136 543 z "},"¢":{"ha":814,"x_min":0,"x_max":678,"o":"m 203 543 l 203 475 l 136 475 l 136 203 l 203 203 l 203 136 l 475 136 l 475 203 l 543 203 l 543 271 l 678 271 l 678 136 l 610 136 l 610 68 l 543 68 l 543 0 l 407 0 l 407 -136 l 271 -136 l 271 0 l 136 0 l 136 68 l 68 68 l 68 136 l 0 136 l 0 543 l 68 543 l 68 610 l 136 610 l 136 678 l 271 678 l 271 814 l 407 814 l 407 678 l 543 678 l 543 610 l 610 610 l 610 543 l 678 543 l 678 407 l 543 407 l 543 475 l 475 475 l 475 543 l 203 543 z "},"¿":{"ha":882,"x_min":0,"x_max":746,"o":"m 475 678 l 339 678 l 339 814 l 475 814 l 475 678 m 475 407 l 203 407 l 203 339 l 136 339 l 136 203 l 203 203 l 203 136 l 543 136 l 543 203 l 610 203 l 610 271 l 746 271 l 746 136 l 678 136 l 678 68 l 610 68 l 610 0 l 136 0 l 136 68 l 68 68 l 68 136 l 0 136 l 0 407 l 68 407 l 68 475 l 136 475 l 136 543 l 475 543 l 475 407 z "},"À":{"ha":882,"x_min":0,"x_max":746,"o":"m 610 407 l 610 475 l 543 475 l 543 543 l 475 543 l 475 610 l 407 610 l 407 678 l 339 678 l 339 610 l 271 610 l 271 543 l 203 543 l 203 475 l 136 475 l 136 407 l 610 407 m 339 949 l 339 882 l 407 882 l 407 949 l 339 949 m 339 949 l 271 949 l 271 1017 l 339 1017 l 339 949 m 0 543 l 68 543 l 68 610 l 136 610 l 136 678 l 203 678 l 203 746 l 271 746 l 271 814 l 475 814 l 475 746 l 543 746 l 543 678 l 610 678 l 610 610 l 678 610 l 678 543 l 746 543 l 746 0 l 610 0 l 610 271 l 136 271 l 136 0 l 0 0 l 0 543 z "},"Á":{"ha":882,"x_min":0,"x_max":746,"o":"m 136 407 l 136 475 l 203 475 l 203 543 l 271 543 l 271 610 l 339 610 l 339 678 l 407 678 l 407 610 l 475 610 l 475 543 l 543 543 l 543 475 l 610 475 l 610 407 l 136 407 m 407 949 l 407 882 l 339 882 l 339 949 l 407 949 m 407 949 l 475 949 l 475 1017 l 407 1017 l 407 949 m 746 543 l 678 543 l 678 610 l 610 610 l 610 678 l 543 678 l 543 746 l 475 746 l 475 814 l 271 814 l 271 746 l 203 746 l 203 678 l 136 678 l 136 610 l 68 610 l 68 543 l 0 543 l 0 0 l 136 0 l 136 271 l 610 271 l 610 0 l 746 0 l 746 543 z "},"Â":{"ha":882,"x_min":0,"x_max":746,"o":"m 136 407 l 136 475 l 203 475 l 203 543 l 271 543 l 271 610 l 339 610 l 339 678 l 407 678 l 407 610 l 475 610 l 475 543 l 543 543 l 543 475 l 610 475 l 610 407 l 136 407 m 407 949 l 407 1017 l 339 1017 l 339 949 l 407 949 m 746 543 l 678 543 l 678 610 l 610 610 l 610 678 l 543 678 l 543 746 l 475 746 l 475 814 l 271 814 l 271 746 l 203 746 l 203 678 l 136 678 l 136 610 l 68 610 l 68 543 l 0 543 l 0 0 l 136 0 l 136 271 l 610 271 l 610 0 l 746 0 l 746 543 m 407 949 l 475 949 l 475 882 l 407 882 l 407 949 m 339 949 l 339 882 l 271 882 l 271 949 l 339 949 z "},"Ã":{"ha":882,"x_min":0,"x_max":746,"o":"m 136 407 l 136 475 l 203 475 l 203 543 l 271 543 l 271 610 l 339 610 l 339 678 l 407 678 l 407 610 l 475 610 l 475 543 l 543 543 l 543 475 l 610 475 l 610 407 l 136 407 m 746 543 l 678 543 l 678 610 l 610 610 l 610 678 l 543 678 l 543 746 l 475 746 l 475 814 l 271 814 l 271 746 l 203 746 l 203 678 l 136 678 l 136 610 l 68 610 l 68 543 l 0 543 l 0 0 l 136 0 l 136 271 l 610 271 l 610 0 l 746 0 l 746 543 m 407 1017 l 475 1017 l 475 949 l 407 949 l 407 1017 m 339 949 l 339 1017 l 271 1017 l 271 949 l 339 949 m 339 949 l 407 949 l 407 882 l 339 882 l 339 949 m 271 949 l 271 882 l 203 882 l 203 949 l 271 949 z "},"Ä":{"ha":882,"x_min":0,"x_max":746,"o":"m 136 407 l 136 475 l 203 475 l 203 543 l 271 543 l 271 610 l 339 610 l 339 678 l 407 678 l 407 610 l 475 610 l 475 543 l 543 543 l 543 475 l 610 475 l 610 407 l 136 407 m 746 543 l 678 543 l 678 610 l 610 610 l 610 678 l 543 678 l 543 746 l 475 746 l 475 814 l 271 814 l 271 746 l 203 746 l 203 678 l 136 678 l 136 610 l 68 610 l 68 543 l 0 543 l 0 0 l 136 0 l 136 271 l 610 271 l 610 0 l 746 0 l 746 543 m 203 882 l 203 1017 l 339 1017 l 339 882 l 203 882 m 407 1017 l 543 1017 l 543 882 l 407 882 l 407 1017 z "},"Å":{"ha":882,"x_min":0,"x_max":746,"o":"m 610 407 l 610 475 l 543 475 l 543 543 l 475 543 l 475 610 l 407 610 l 407 678 l 339 678 l 339 610 l 271 610 l 271 543 l 203 543 l 203 475 l 136 475 l 136 407 l 610 407 m 407 1017 l 407 949 l 475 949 l 475 1017 l 407 1017 m 339 949 l 339 882 l 407 882 l 407 949 l 339 949 m 407 1017 l 339 1017 l 339 1085 l 407 1085 l 407 1017 m 339 949 l 271 949 l 271 1017 l 339 1017 l 339 949 m 0 543 l 68 543 l 68 610 l 136 610 l 136 678 l 203 678 l 203 746 l 271 746 l 271 814 l 475 814 l 475 746 l 543 746 l 543 678 l 610 678 l 610 610 l 678 610 l 678 543 l 746 543 l 746 0 l 610 0 l 610 271 l 136 271 l 136 0 l 0 0 l 0 543 z "},"Æ":{"ha":1492,"x_min":0,"x_max":1356,"o":"m 610 407 l 610 475 l 543 475 l 543 543 l 475 543 l 475 610 l 407 610 l 407 678 l 339 678 l 339 610 l 271 610 l 271 543 l 203 543 l 203 475 l 136 475 l 136 407 l 610 407 m 610 678 l 610 814 l 1356 814 l 1356 678 l 746 678 l 746 475 l 1221 475 l 1221 339 l 746 339 l 746 136 l 1356 136 l 1356 0 l 610 0 l 610 271 l 136 271 l 136 0 l 0 0 l 0 543 l 68 543 l 68 610 l 136 610 l 136 678 l 203 678 l 203 746 l 271 746 l 271 814 l 475 814 l 475 746 l 543 746 l 543 678 l 610 678 z "},"Ç":{"ha":882,"x_min":0,"x_max":746,"o":"m 271 -136 l 271 -203 l 407 -203 l 407 -136 l 271 -136 m 407 -68 l 407 -136 l 475 -136 l 475 -68 l 407 -68 m 407 0 l 407 -68 l 339 -68 l 339 0 l 136 0 l 136 68 l 68 68 l 68 136 l 0 136 l 0 678 l 68 678 l 68 746 l 136 746 l 136 814 l 610 814 l 610 746 l 678 746 l 678 678 l 746 678 l 746 543 l 610 543 l 610 610 l 543 610 l 543 678 l 203 678 l 203 610 l 136 610 l 136 203 l 203 203 l 203 136 l 543 136 l 543 203 l 610 203 l 610 271 l 746 271 l 746 136 l 678 136 l 678 68 l 610 68 l 610 0 l 407 0 z "},"È":{"ha":882,"x_min":0,"x_max":746,"o":"m 339 949 l 339 882 l 407 882 l 407 949 l 339 949 m 339 949 l 271 949 l 271 1017 l 339 1017 l 339 949 m 0 814 l 746 814 l 746 678 l 136 678 l 136 475 l 610 475 l 610 339 l 136 339 l 136 136 l 746 136 l 746 0 l 0 0 l 0 814 z "},"É":{"ha":882,"x_min":0,"x_max":746,"o":"m 407 949 l 407 882 l 339 882 l 339 949 l 407 949 m 407 949 l 475 949 l 475 1017 l 407 1017 l 407 949 m 0 814 l 746 814 l 746 678 l 136 678 l 136 475 l 610 475 l 610 339 l 136 339 l 136 136 l 746 136 l 746 0 l 0 0 l 0 814 z "},"Ê":{"ha":882,"x_min":0,"x_max":746,"o":"m 407 949 l 407 1017 l 339 1017 l 339 949 l 407 949 m 407 949 l 475 949 l 475 882 l 407 882 l 407 949 m 339 949 l 339 882 l 271 882 l 271 949 l 339 949 m 0 814 l 746 814 l 746 678 l 136 678 l 136 475 l 610 475 l 610 339 l 136 339 l 136 136 l 746 136 l 746 0 l 0 0 l 0 814 z "},"Ë":{"ha":882,"x_min":0,"x_max":746,"o":"m 339 1017 l 339 882 l 203 882 l 203 1017 l 339 1017 m 0 814 l 746 814 l 746 678 l 136 678 l 136 475 l 610 475 l 610 339 l 136 339 l 136 136 l 746 136 l 746 0 l 0 0 l 0 814 m 543 1017 l 543 882 l 407 882 l 407 1017 l 543 1017 z "},"Ì":{"ha":543,"x_min":0,"x_max":408,"o":"m 136 949 l 136 882 l 203 882 l 203 949 l 136 949 m 136 949 l 68 949 l 68 1017 l 136 1017 l 136 949 m 407 136 l 407 0 l 0 0 l 0 136 l 136 136 l 136 678 l 0 678 l 0 814 l 407 814 l 407 678 l 271 678 l 271 136 l 407 136 z "},"Í":{"ha":543,"x_min":0,"x_max":408,"o":"m 271 949 l 271 882 l 203 882 l 203 949 l 271 949 m 271 949 l 339 949 l 339 1017 l 271 1017 l 271 949 m 0 136 l 0 0 l 407 0 l 407 136 l 271 136 l 271 678 l 407 678 l 407 814 l 0 814 l 0 678 l 136 678 l 136 136 l 0 136 z "},"Î":{"ha":543,"x_min":0,"x_max":408,"o":"m 136 949 l 203 949 l 203 1017 l 136 1017 l 136 949 m 0 136 l 0 0 l 407 0 l 407 136 l 271 136 l 271 678 l 407 678 l 407 814 l 0 814 l 0 678 l 136 678 l 136 136 l 0 136 m 136 949 l 136 882 l 68 882 l 68 949 l 136 949 m 203 882 l 271 882 l 271 949 l 203 949 l 203 882 z "},"Ï":{"ha":543,"x_min":0,"x_max":408,"o":"m 0 136 l 0 0 l 407 0 l 407 136 l 271 136 l 271 678 l 407 678 l 407 814 l 0 814 l 0 678 l 136 678 l 136 136 l 0 136 m 136 1017 l 136 882 l 0 882 l 0 1017 l 136 1017 m 407 1017 l 407 882 l 271 882 l 271 1017 l 407 1017 z "},"Ð":{"ha":1017,"x_min":0,"x_max":882,"o":"m 271 475 l 543 475 l 543 339 l 271 339 l 271 136 l 678 136 l 678 203 l 746 203 l 746 610 l 678 610 l 678 678 l 271 678 l 271 475 m 136 339 l 0 339 l 0 475 l 136 475 l 136 814 l 746 814 l 746 746 l 814 746 l 814 678 l 882 678 l 882 136 l 814 136 l 814 68 l 746 68 l 746 0 l 136 0 l 136 339 z "},"Ñ":{"ha":882,"x_min":0,"x_max":746,"o":"m 339 949 l 339 1017 l 271 1017 l 271 949 l 339 949 m 271 949 l 271 882 l 203 882 l 203 949 l 271 949 m 610 814 l 746 814 l 746 0 l 610 0 l 610 136 l 543 136 l 543 203 l 475 203 l 475 271 l 407 271 l 407 339 l 339 339 l 339 407 l 271 407 l 271 475 l 203 475 l 203 543 l 136 543 l 136 0 l 0 0 l 0 814 l 136 814 l 136 746 l 203 746 l 203 678 l 271 678 l 271 610 l 339 610 l 339 543 l 407 543 l 407 475 l 475 475 l 475 407 l 543 407 l 543 339 l 610 339 l 610 814 m 407 1017 l 475 1017 l 475 949 l 407 949 l 407 1017 m 339 949 l 407 949 l 407 882 l 339 882 l 339 949 z "},"Ò":{"ha":882,"x_min":0,"x_max":746,"o":"m 203 678 l 203 610 l 136 610 l 136 203 l 203 203 l 203 136 l 543 136 l 543 203 l 610 203 l 610 610 l 543 610 l 543 678 l 203 678 m 746 136 l 678 136 l 678 68 l 610 68 l 610 0 l 136 0 l 136 68 l 68 68 l 68 136 l 0 136 l 0 678 l 68 678 l 68 746 l 136 746 l 136 814 l 610 814 l 610 746 l 678 746 l 678 678 l 746 678 l 746 136 m 339 949 l 339 882 l 407 882 l 407 949 l 339 949 m 339 949 l 271 949 l 271 1017 l 339 1017 l 339 949 z "},"Ó":{"ha":882,"x_min":0,"x_max":746,"o":"m 203 678 l 203 610 l 136 610 l 136 203 l 203 203 l 203 136 l 543 136 l 543 203 l 610 203 l 610 610 l 543 610 l 543 678 l 203 678 m 746 136 l 678 136 l 678 68 l 610 68 l 610 0 l 136 0 l 136 68 l 68 68 l 68 136 l 0 136 l 0 678 l 68 678 l 68 746 l 136 746 l 136 814 l 610 814 l 610 746 l 678 746 l 678 678 l 746 678 l 746 136 m 407 949 l 407 882 l 339 882 l 339 949 l 407 949 m 407 949 l 475 949 l 475 1017 l 407 1017 l 407 949 z "},"Ô":{"ha":882,"x_min":0,"x_max":746,"o":"m 203 678 l 203 610 l 136 610 l 136 203 l 203 203 l 203 136 l 543 136 l 543 203 l 610 203 l 610 610 l 543 610 l 543 678 l 203 678 m 746 136 l 678 136 l 678 68 l 610 68 l 610 0 l 136 0 l 136 68 l 68 68 l 68 136 l 0 136 l 0 678 l 68 678 l 68 746 l 136 746 l 136 814 l 610 814 l 610 746 l 678 746 l 678 678 l 746 678 l 746 136 m 407 949 l 407 1017 l 339 1017 l 339 949 l 407 949 m 407 949 l 475 949 l 475 882 l 407 882 l 407 949 m 339 949 l 339 882 l 271 882 l 271 949 l 339 949 z "},"Õ":{"ha":882,"x_min":0,"x_max":746,"o":"m 203 678 l 203 610 l 136 610 l 136 203 l 203 203 l 203 136 l 543 136 l 543 203 l 610 203 l 610 610 l 543 610 l 543 678 l 203 678 m 746 136 l 678 136 l 678 68 l 610 68 l 610 0 l 136 0 l 136 68 l 68 68 l 68 136 l 0 136 l 0 678 l 68 678 l 68 746 l 136 746 l 136 814 l 610 814 l 610 746 l 678 746 l 678 678 l 746 678 l 746 136 m 407 1017 l 475 1017 l 475 949 l 407 949 l 407 1017 m 339 949 l 339 1017 l 271 1017 l 271 949 l 339 949 m 339 949 l 407 949 l 407 882 l 339 882 l 339 949 m 271 949 l 271 882 l 203 882 l 203 949 l 271 949 z "},"Ö":{"ha":882,"x_min":0,"x_max":746,"o":"m 203 678 l 203 610 l 136 610 l 136 203 l 203 203 l 203 136 l 543 136 l 543 203 l 610 203 l 610 610 l 543 610 l 543 678 l 203 678 m 746 136 l 678 136 l 678 68 l 610 68 l 610 0 l 136 0 l 136 68 l 68 68 l 68 136 l 0 136 l 0 678 l 68 678 l 68 746 l 136 746 l 136 814 l 610 814 l 610 746 l 678 746 l 678 678 l 746 678 l 746 136 m 203 882 l 203 1017 l 339 1017 l 339 882 l 203 882 m 407 1017 l 543 1017 l 543 882 l 407 882 l 407 1017 z "},"×":{"ha":882,"x_min":0,"x_max":746,"o":"m 610 0 l 610 68 l 543 68 l 543 136 l 475 136 l 475 203 l 407 203 l 407 271 l 339 271 l 339 203 l 271 203 l 271 136 l 203 136 l 203 68 l 136 68 l 136 0 l 0 0 l 0 136 l 68 136 l 68 203 l 136 203 l 136 271 l 203 271 l 203 339 l 271 339 l 271 407 l 203 407 l 203 475 l 136 475 l 136 543 l 68 543 l 68 610 l 0 610 l 0 746 l 136 746 l 136 678 l 203 678 l 203 610 l 271 610 l 271 543 l 339 543 l 339 475 l 407 475 l 407 543 l 475 543 l 475 610 l 543 610 l 543 678 l 610 678 l 610 746 l 746 746 l 746 610 l 678 610 l 678 543 l 610 543 l 610 475 l 543 475 l 543 407 l 475 407 l 475 339 l 543 339 l 543 271 l 610 271 l 610 203 l 678 203 l 678 136 l 746 136 l 746 0 l 610 0 z "},"Ø":{"ha":949,"x_min":0,"x_max":814,"o":"m 543 543 l 543 475 l 475 475 l 475 543 l 543 543 m 271 271 l 271 203 l 203 203 l 203 271 l 271 271 m 339 339 l 339 271 l 271 271 l 271 339 l 339 339 m 407 407 l 407 339 l 339 339 l 339 407 l 407 407 m 475 475 l 475 407 l 407 407 l 407 475 l 475 475 m 543 678 l 203 678 l 203 610 l 136 610 l 136 203 l 203 203 l 203 136 l 543 136 l 543 203 l 610 203 l 610 543 l 543 543 l 543 678 m 814 814 l 814 746 l 746 746 l 746 814 l 814 814 m 136 68 l 68 68 l 68 136 l 0 136 l 0 678 l 68 678 l 68 746 l 136 746 l 136 814 l 610 814 l 610 746 l 746 746 l 746 136 l 678 136 l 678 68 l 610 68 l 610 0 l 136 0 l 136 68 m 68 68 l 68 0 l 0 0 l 0 68 l 68 68 z "},"Ù":{"ha":882,"x_min":0,"x_max":746,"o":"m 136 814 l 136 203 l 203 203 l 203 136 l 543 136 l 543 203 l 610 203 l 610 814 l 746 814 l 746 136 l 678 136 l 678 68 l 610 68 l 610 0 l 136 0 l 136 68 l 68 68 l 68 136 l 0 136 l 0 814 l 136 814 m 339 949 l 339 882 l 407 882 l 407 949 l 339 949 m 339 949 l 271 949 l 271 1017 l 339 1017 l 339 949 z "},"Ú":{"ha":882,"x_min":0,"x_max":746,"o":"m 610 814 l 610 203 l 543 203 l 543 136 l 203 136 l 203 203 l 136 203 l 136 814 l 0 814 l 0 136 l 68 136 l 68 68 l 136 68 l 136 0 l 610 0 l 610 68 l 678 68 l 678 136 l 746 136 l 746 814 l 610 814 m 407 949 l 407 882 l 339 882 l 339 949 l 407 949 m 407 949 l 475 949 l 475 1017 l 407 1017 l 407 949 z "},"Û":{"ha":882,"x_min":0,"x_max":746,"o":"m 136 814 l 136 203 l 203 203 l 203 136 l 543 136 l 543 203 l 610 203 l 610 814 l 746 814 l 746 136 l 678 136 l 678 68 l 610 68 l 610 0 l 136 0 l 136 68 l 68 68 l 68 136 l 0 136 l 0 814 l 136 814 m 407 949 l 407 1017 l 339 1017 l 339 949 l 407 949 m 407 949 l 475 949 l 475 882 l 407 882 l 407 949 m 339 949 l 339 882 l 271 882 l 271 949 l 339 949 z "},"Ü":{"ha":882,"x_min":0,"x_max":746,"o":"m 136 814 l 136 203 l 203 203 l 203 136 l 543 136 l 543 203 l 610 203 l 610 814 l 746 814 l 746 136 l 678 136 l 678 68 l 610 68 l 610 0 l 136 0 l 136 68 l 68 68 l 68 136 l 0 136 l 0 814 l 136 814 m 203 882 l 203 1017 l 339 1017 l 339 882 l 203 882 m 407 1017 l 543 1017 l 543 882 l 407 882 l 407 1017 z "},"Ý":{"ha":814,"x_min":0,"x_max":678,"o":"m 678 543 l 610 543 l 610 475 l 543 475 l 543 407 l 475 407 l 475 339 l 407 339 l 407 0 l 271 0 l 271 339 l 203 339 l 203 407 l 136 407 l 136 475 l 68 475 l 68 543 l 0 543 l 0 814 l 136 814 l 136 610 l 203 610 l 203 543 l 271 543 l 271 475 l 407 475 l 407 543 l 475 543 l 475 610 l 543 610 l 543 814 l 678 814 l 678 543 m 339 949 l 339 882 l 271 882 l 271 949 l 339 949 m 339 949 l 407 949 l 407 1017 l 339 1017 l 339 949 z "},"Þ":{"ha":882,"x_min":0,"x_max":747,"o":"m 136 543 l 136 271 l 543 271 l 543 339 l 610 339 l 610 475 l 543 475 l 543 543 l 136 543 m 0 814 l 136 814 l 136 678 l 610 678 l 610 610 l 678 610 l 678 543 l 746 543 l 746 271 l 678 271 l 678 203 l 610 203 l 610 136 l 136 136 l 136 0 l 0 0 l 0 814 z "},"ß":{"ha":678,"x_min":0,"x_max":543,"o":"m 339 475 l 339 543 l 407 543 l 407 610 l 339 610 l 339 678 l 203 678 l 203 610 l 136 610 l 136 0 l 0 0 l 0 678 l 68 678 l 68 746 l 136 746 l 136 814 l 407 814 l 407 746 l 475 746 l 475 678 l 543 678 l 543 475 l 475 475 l 475 339 l 543 339 l 543 136 l 475 136 l 475 68 l 407 68 l 407 0 l 271 0 l 271 136 l 339 136 l 339 203 l 407 203 l 407 271 l 339 271 l 339 339 l 271 339 l 271 475 l 339 475 z "},"à":{"ha":882,"x_min":0,"x_max":746,"o":"m 610 407 l 610 475 l 543 475 l 543 543 l 475 543 l 475 610 l 407 610 l 407 678 l 339 678 l 339 610 l 271 610 l 271 543 l 203 543 l 203 475 l 136 475 l 136 407 l 610 407 m 339 949 l 339 882 l 407 882 l 407 949 l 339 949 m 339 949 l 271 949 l 271 1017 l 339 1017 l 339 949 m 0 543 l 68 543 l 68 610 l 136 610 l 136 678 l 203 678 l 203 746 l 271 746 l 271 814 l 475 814 l 475 746 l 543 746 l 543 678 l 610 678 l 610 610 l 678 610 l 678 543 l 746 543 l 746 0 l 610 0 l 610 271 l 136 271 l 136 0 l 0 0 l 0 543 z "},"á":{"ha":882,"x_min":0,"x_max":746,"o":"m 136 407 l 136 475 l 203 475 l 203 543 l 271 543 l 271 610 l 339 610 l 339 678 l 407 678 l 407 610 l 475 610 l 475 543 l 543 543 l 543 475 l 610 475 l 610 407 l 136 407 m 407 949 l 407 882 l 339 882 l 339 949 l 407 949 m 407 949 l 475 949 l 475 1017 l 407 1017 l 407 949 m 746 543 l 678 543 l 678 610 l 610 610 l 610 678 l 543 678 l 543 746 l 475 746 l 475 814 l 271 814 l 271 746 l 203 746 l 203 678 l 136 678 l 136 610 l 68 610 l 68 543 l 0 543 l 0 0 l 136 0 l 136 271 l 610 271 l 610 0 l 746 0 l 746 543 z "},"â":{"ha":882,"x_min":0,"x_max":746,"o":"m 136 407 l 136 475 l 203 475 l 203 543 l 271 543 l 271 610 l 339 610 l 339 678 l 407 678 l 407 610 l 475 610 l 475 543 l 543 543 l 543 475 l 610 475 l 610 407 l 136 407 m 407 949 l 407 1017 l 339 1017 l 339 949 l 407 949 m 746 543 l 678 543 l 678 610 l 610 610 l 610 678 l 543 678 l 543 746 l 475 746 l 475 814 l 271 814 l 271 746 l 203 746 l 203 678 l 136 678 l 136 610 l 68 610 l 68 543 l 0 543 l 0 0 l 136 0 l 136 271 l 610 271 l 610 0 l 746 0 l 746 543 m 407 949 l 475 949 l 475 882 l 407 882 l 407 949 m 339 949 l 339 882 l 271 882 l 271 949 l 339 949 z "},"ã":{"ha":882,"x_min":0,"x_max":746,"o":"m 136 407 l 136 475 l 203 475 l 203 543 l 271 543 l 271 610 l 339 610 l 339 678 l 407 678 l 407 610 l 475 610 l 475 543 l 543 543 l 543 475 l 610 475 l 610 407 l 136 407 m 746 543 l 678 543 l 678 610 l 610 610 l 610 678 l 543 678 l 543 746 l 475 746 l 475 814 l 271 814 l 271 746 l 203 746 l 203 678 l 136 678 l 136 610 l 68 610 l 68 543 l 0 543 l 0 0 l 136 0 l 136 271 l 610 271 l 610 0 l 746 0 l 746 543 m 407 1017 l 475 1017 l 475 949 l 407 949 l 407 1017 m 339 949 l 339 1017 l 271 1017 l 271 949 l 339 949 m 339 949 l 407 949 l 407 882 l 339 882 l 339 949 m 271 949 l 271 882 l 203 882 l 203 949 l 271 949 z "},"ä":{"ha":882,"x_min":0,"x_max":746,"o":"m 136 407 l 136 475 l 203 475 l 203 543 l 271 543 l 271 610 l 339 610 l 339 678 l 407 678 l 407 610 l 475 610 l 475 543 l 543 543 l 543 475 l 610 475 l 610 407 l 136 407 m 746 543 l 678 543 l 678 610 l 610 610 l 610 678 l 543 678 l 543 746 l 475 746 l 475 814 l 271 814 l 271 746 l 203 746 l 203 678 l 136 678 l 136 610 l 68 610 l 68 543 l 0 543 l 0 0 l 136 0 l 136 271 l 610 271 l 610 0 l 746 0 l 746 543 m 203 882 l 203 1017 l 339 1017 l 339 882 l 203 882 m 407 1017 l 543 1017 l 543 882 l 407 882 l 407 1017 z "},"å":{"ha":882,"x_min":0,"x_max":746,"o":"m 610 407 l 610 475 l 543 475 l 543 543 l 475 543 l 475 610 l 407 610 l 407 678 l 339 678 l 339 610 l 271 610 l 271 543 l 203 543 l 203 475 l 136 475 l 136 407 l 610 407 m 407 1017 l 407 949 l 475 949 l 475 1017 l 407 1017 m 339 949 l 339 882 l 407 882 l 407 949 l 339 949 m 407 1017 l 339 1017 l 339 1085 l 407 1085 l 407 1017 m 339 949 l 271 949 l 271 1017 l 339 1017 l 339 949 m 0 543 l 68 543 l 68 610 l 136 610 l 136 678 l 203 678 l 203 746 l 271 746 l 271 814 l 475 814 l 475 746 l 543 746 l 543 678 l 610 678 l 610 610 l 678 610 l 678 543 l 746 543 l 746 0 l 610 0 l 610 271 l 136 271 l 136 0 l 0 0 l 0 543 z "},"æ":{"ha":1492,"x_min":0,"x_max":1356,"o":"m 610 407 l 610 475 l 543 475 l 543 543 l 475 543 l 475 610 l 407 610 l 407 678 l 339 678 l 339 610 l 271 610 l 271 543 l 203 543 l 203 475 l 136 475 l 136 407 l 610 407 m 610 678 l 610 814 l 1356 814 l 1356 678 l 746 678 l 746 475 l 1221 475 l 1221 339 l 746 339 l 746 136 l 1356 136 l 1356 0 l 610 0 l 610 271 l 136 271 l 136 0 l 0 0 l 0 543 l 68 543 l 68 610 l 136 610 l 136 678 l 203 678 l 203 746 l 271 746 l 271 814 l 475 814 l 475 746 l 543 746 l 543 678 l 610 678 z "},"ç":{"ha":882,"x_min":0,"x_max":746,"o":"m 271 -136 l 271 -203 l 407 -203 l 407 -136 l 271 -136 m 407 -68 l 407 -136 l 475 -136 l 475 -68 l 407 -68 m 407 0 l 407 -68 l 339 -68 l 339 0 l 136 0 l 136 68 l 68 68 l 68 136 l 0 136 l 0 678 l 68 678 l 68 746 l 136 746 l 136 814 l 610 814 l 610 746 l 678 746 l 678 678 l 746 678 l 746 543 l 610 543 l 610 610 l 543 610 l 543 678 l 203 678 l 203 610 l 136 610 l 136 203 l 203 203 l 203 136 l 543 136 l 543 203 l 610 203 l 610 271 l 746 271 l 746 136 l 678 136 l 678 68 l 610 68 l 610 0 l 407 0 z "},"è":{"ha":882,"x_min":0,"x_max":746,"o":"m 339 949 l 339 882 l 407 882 l 407 949 l 339 949 m 339 949 l 271 949 l 271 1017 l 339 1017 l 339 949 m 0 814 l 746 814 l 746 678 l 136 678 l 136 475 l 610 475 l 610 339 l 136 339 l 136 136 l 746 136 l 746 0 l 0 0 l 0 814 z "},"é":{"ha":882,"x_min":0,"x_max":746,"o":"m 407 949 l 407 882 l 339 882 l 339 949 l 407 949 m 407 949 l 475 949 l 475 1017 l 407 1017 l 407 949 m 0 814 l 746 814 l 746 678 l 136 678 l 136 475 l 610 475 l 610 339 l 136 339 l 136 136 l 746 136 l 746 0 l 0 0 l 0 814 z "},"ê":{"ha":882,"x_min":0,"x_max":746,"o":"m 407 949 l 407 1017 l 339 1017 l 339 949 l 407 949 m 407 949 l 475 949 l 475 882 l 407 882 l 407 949 m 339 949 l 339 882 l 271 882 l 271 949 l 339 949 m 0 814 l 746 814 l 746 678 l 136 678 l 136 475 l 610 475 l 610 339 l 136 339 l 136 136 l 746 136 l 746 0 l 0 0 l 0 814 z "},"ë":{"ha":882,"x_min":0,"x_max":746,"o":"m 339 1017 l 339 882 l 203 882 l 203 1017 l 339 1017 m 0 814 l 746 814 l 746 678 l 136 678 l 136 475 l 610 475 l 610 339 l 136 339 l 136 136 l 746 136 l 746 0 l 0 0 l 0 814 m 543 1017 l 543 882 l 407 882 l 407 1017 l 543 1017 z "},"ì":{"ha":543,"x_min":0,"x_max":408,"o":"m 136 949 l 136 882 l 203 882 l 203 949 l 136 949 m 136 949 l 68 949 l 68 1017 l 136 1017 l 136 949 m 407 136 l 407 0 l 0 0 l 0 136 l 136 136 l 136 678 l 0 678 l 0 814 l 407 814 l 407 678 l 271 678 l 271 136 l 407 136 z "},"í":{"ha":543,"x_min":0,"x_max":408,"o":"m 271 949 l 271 882 l 203 882 l 203 949 l 271 949 m 271 949 l 339 949 l 339 1017 l 271 1017 l 271 949 m 0 136 l 0 0 l 407 0 l 407 136 l 271 136 l 271 678 l 407 678 l 407 814 l 0 814 l 0 678 l 136 678 l 136 136 l 0 136 z "},"î":{"ha":543,"x_min":0,"x_max":408,"o":"m 136 949 l 203 949 l 203 1017 l 136 1017 l 136 949 m 0 136 l 0 0 l 407 0 l 407 136 l 271 136 l 271 678 l 407 678 l 407 814 l 0 814 l 0 678 l 136 678 l 136 136 l 0 136 m 136 949 l 136 882 l 68 882 l 68 949 l 136 949 m 203 882 l 271 882 l 271 949 l 203 949 l 203 882 z "},"ï":{"ha":543,"x_min":0,"x_max":408,"o":"m 0 136 l 0 0 l 407 0 l 407 136 l 271 136 l 271 678 l 407 678 l 407 814 l 0 814 l 0 678 l 136 678 l 136 136 l 0 136 m 136 1017 l 136 882 l 0 882 l 0 1017 l 136 1017 m 407 1017 l 407 882 l 271 882 l 271 1017 l 407 1017 z "},"ð":{"ha":1017,"x_min":0,"x_max":882,"o":"m 271 475 l 543 475 l 543 339 l 271 339 l 271 136 l 678 136 l 678 203 l 746 203 l 746 610 l 678 610 l 678 678 l 271 678 l 271 475 m 136 339 l 0 339 l 0 475 l 136 475 l 136 814 l 746 814 l 746 746 l 814 746 l 814 678 l 882 678 l 882 136 l 814 136 l 814 68 l 746 68 l 746 0 l 136 0 l 136 339 z "},"ñ":{"ha":882,"x_min":0,"x_max":746,"o":"m 339 949 l 339 1017 l 271 1017 l 271 949 l 339 949 m 271 949 l 271 882 l 203 882 l 203 949 l 271 949 m 610 814 l 746 814 l 746 0 l 610 0 l 610 136 l 543 136 l 543 203 l 475 203 l 475 271 l 407 271 l 407 339 l 339 339 l 339 407 l 271 407 l 271 475 l 203 475 l 203 543 l 136 543 l 136 0 l 0 0 l 0 814 l 136 814 l 136 746 l 203 746 l 203 678 l 271 678 l 271 610 l 339 610 l 339 543 l 407 543 l 407 475 l 475 475 l 475 407 l 543 407 l 543 339 l 610 339 l 610 814 m 407 1017 l 475 1017 l 475 949 l 407 949 l 407 1017 m 339 949 l 407 949 l 407 882 l 339 882 l 339 949 z "},"ò":{"ha":882,"x_min":0,"x_max":746,"o":"m 203 678 l 203 610 l 136 610 l 136 203 l 203 203 l 203 136 l 543 136 l 543 203 l 610 203 l 610 610 l 543 610 l 543 678 l 203 678 m 746 136 l 678 136 l 678 68 l 610 68 l 610 0 l 136 0 l 136 68 l 68 68 l 68 136 l 0 136 l 0 678 l 68 678 l 68 746 l 136 746 l 136 814 l 610 814 l 610 746 l 678 746 l 678 678 l 746 678 l 746 136 m 339 949 l 339 882 l 407 882 l 407 949 l 339 949 m 339 949 l 271 949 l 271 1017 l 339 1017 l 339 949 z "},"ó":{"ha":882,"x_min":0,"x_max":746,"o":"m 203 678 l 203 610 l 136 610 l 136 203 l 203 203 l 203 136 l 543 136 l 543 203 l 610 203 l 610 610 l 543 610 l 543 678 l 203 678 m 746 136 l 678 136 l 678 68 l 610 68 l 610 0 l 136 0 l 136 68 l 68 68 l 68 136 l 0 136 l 0 678 l 68 678 l 68 746 l 136 746 l 136 814 l 610 814 l 610 746 l 678 746 l 678 678 l 746 678 l 746 136 m 407 949 l 407 882 l 339 882 l 339 949 l 407 949 m 407 949 l 475 949 l 475 1017 l 407 1017 l 407 949 z "},"ô":{"ha":882,"x_min":0,"x_max":746,"o":"m 203 678 l 203 610 l 136 610 l 136 203 l 203 203 l 203 136 l 543 136 l 543 203 l 610 203 l 610 610 l 543 610 l 543 678 l 203 678 m 746 136 l 678 136 l 678 68 l 610 68 l 610 0 l 136 0 l 136 68 l 68 68 l 68 136 l 0 136 l 0 678 l 68 678 l 68 746 l 136 746 l 136 814 l 610 814 l 610 746 l 678 746 l 678 678 l 746 678 l 746 136 m 407 949 l 407 1017 l 339 1017 l 339 949 l 407 949 m 407 949 l 475 949 l 475 882 l 407 882 l 407 949 m 339 949 l 339 882 l 271 882 l 271 949 l 339 949 z "},"õ":{"ha":882,"x_min":0,"x_max":746,"o":"m 203 678 l 203 610 l 136 610 l 136 203 l 203 203 l 203 136 l 543 136 l 543 203 l 610 203 l 610 610 l 543 610 l 543 678 l 203 678 m 746 136 l 678 136 l 678 68 l 610 68 l 610 0 l 136 0 l 136 68 l 68 68 l 68 136 l 0 136 l 0 678 l 68 678 l 68 746 l 136 746 l 136 814 l 610 814 l 610 746 l 678 746 l 678 678 l 746 678 l 746 136 m 407 1017 l 475 1017 l 475 949 l 407 949 l 407 1017 m 339 949 l 339 1017 l 271 1017 l 271 949 l 339 949 m 339 949 l 407 949 l 407 882 l 339 882 l 339 949 m 271 949 l 271 882 l 203 882 l 203 949 l 271 949 z "},"ö":{"ha":882,"x_min":0,"x_max":746,"o":"m 203 678 l 203 610 l 136 610 l 136 203 l 203 203 l 203 136 l 543 136 l 543 203 l 610 203 l 610 610 l 543 610 l 543 678 l 203 678 m 746 136 l 678 136 l 678 68 l 610 68 l 610 0 l 136 0 l 136 68 l 68 68 l 68 136 l 0 136 l 0 678 l 68 678 l 68 746 l 136 746 l 136 814 l 610 814 l 610 746 l 678 746 l 678 678 l 746 678 l 746 136 m 203 882 l 203 1017 l 339 1017 l 339 882 l 203 882 m 407 1017 l 543 1017 l 543 882 l 407 882 l 407 1017 z "},"÷":{"ha":678,"x_min":0,"x_max":543,"o":"m 0 339 l 0 475 l 543 475 l 543 339 l 0 339 m 203 543 l 203 678 l 339 678 l 339 543 l 203 543 m 203 136 l 203 271 l 339 271 l 339 136 l 203 136 z "},"ø":{"ha":949,"x_min":0,"x_max":814,"o":"m 543 543 l 543 475 l 475 475 l 475 543 l 543 543 m 271 271 l 271 203 l 203 203 l 203 271 l 271 271 m 339 339 l 339 271 l 271 271 l 271 339 l 339 339 m 407 407 l 407 339 l 339 339 l 339 407 l 407 407 m 475 475 l 475 407 l 407 407 l 407 475 l 475 475 m 543 678 l 203 678 l 203 610 l 136 610 l 136 203 l 203 203 l 203 136 l 543 136 l 543 203 l 610 203 l 610 543 l 543 543 l 543 678 m 814 814 l 814 746 l 746 746 l 746 814 l 814 814 m 136 68 l 68 68 l 68 136 l 0 136 l 0 678 l 68 678 l 68 746 l 136 746 l 136 814 l 610 814 l 610 746 l 746 746 l 746 136 l 678 136 l 678 68 l 610 68 l 610 0 l 136 0 l 136 68 m 68 68 l 68 0 l 0 0 l 0 68 l 68 68 z "},"ù":{"ha":882,"x_min":0,"x_max":746,"o":"m 136 814 l 136 203 l 203 203 l 203 136 l 543 136 l 543 203 l 610 203 l 610 814 l 746 814 l 746 136 l 678 136 l 678 68 l 610 68 l 610 0 l 136 0 l 136 68 l 68 68 l 68 136 l 0 136 l 0 814 l 136 814 m 339 949 l 339 882 l 407 882 l 407 949 l 339 949 m 339 949 l 271 949 l 271 1017 l 339 1017 l 339 949 z "},"ú":{"ha":882,"x_min":0,"x_max":746,"o":"m 610 814 l 610 203 l 543 203 l 543 136 l 203 136 l 203 203 l 136 203 l 136 814 l 0 814 l 0 136 l 68 136 l 68 68 l 136 68 l 136 0 l 610 0 l 610 68 l 678 68 l 678 136 l 746 136 l 746 814 l 610 814 m 407 949 l 407 882 l 339 882 l 339 949 l 407 949 m 407 949 l 475 949 l 475 1017 l 407 1017 l 407 949 z "},"û":{"ha":882,"x_min":0,"x_max":746,"o":"m 136 814 l 136 203 l 203 203 l 203 136 l 543 136 l 543 203 l 610 203 l 610 814 l 746 814 l 746 136 l 678 136 l 678 68 l 610 68 l 610 0 l 136 0 l 136 68 l 68 68 l 68 136 l 0 136 l 0 814 l 136 814 m 407 949 l 407 1017 l 339 1017 l 339 949 l 407 949 m 407 949 l 475 949 l 475 882 l 407 882 l 407 949 m 339 949 l 339 882 l 271 882 l 271 949 l 339 949 z "},"ü":{"ha":882,"x_min":0,"x_max":746,"o":"m 136 814 l 136 203 l 203 203 l 203 136 l 543 136 l 543 203 l 610 203 l 610 814 l 746 814 l 746 136 l 678 136 l 678 68 l 610 68 l 610 0 l 136 0 l 136 68 l 68 68 l 68 136 l 0 136 l 0 814 l 136 814 m 203 882 l 203 1017 l 339 1017 l 339 882 l 203 882 m 407 1017 l 543 1017 l 543 882 l 407 882 l 407 1017 z "},"ý":{"ha":814,"x_min":0,"x_max":678,"o":"m 678 543 l 610 543 l 610 475 l 543 475 l 543 407 l 475 407 l 475 339 l 407 339 l 407 0 l 271 0 l 271 339 l 203 339 l 203 407 l 136 407 l 136 475 l 68 475 l 68 543 l 0 543 l 0 814 l 136 814 l 136 610 l 203 610 l 203 543 l 271 543 l 271 475 l 407 475 l 407 543 l 475 543 l 475 610 l 543 610 l 543 814 l 678 814 l 678 543 m 339 949 l 339 882 l 271 882 l 271 949 l 339 949 m 339 949 l 407 949 l 407 1017 l 339 1017 l 339 949 z "},"þ":{"ha":882,"x_min":0,"x_max":747,"o":"m 136 543 l 136 271 l 543 271 l 543 339 l 610 339 l 610 475 l 543 475 l 543 543 l 136 543 m 0 814 l 136 814 l 136 678 l 610 678 l 610 610 l 678 610 l 678 543 l 746 543 l 746 271 l 678 271 l 678 203 l 610 203 l 610 136 l 136 136 l 136 0 l 0 0 l 0 814 z "},"ÿ":{"ha":814,"x_min":0,"x_max":678,"o":"m 407 1017 l 543 1017 l 543 882 l 407 882 l 407 1017 m 678 543 l 610 543 l 610 475 l 543 475 l 543 407 l 475 407 l 475 339 l 407 339 l 407 0 l 271 0 l 271 339 l 203 339 l 203 407 l 136 407 l 136 475 l 68 475 l 68 543 l 0 543 l 0 814 l 136 814 l 136 610 l 203 610 l 203 543 l 271 543 l 271 475 l 407 475 l 407 543 l 475 543 l 475 610 l 543 610 l 543 814 l 678 814 l 678 543 m 136 882 l 136 1017 l 271 1017 l 271 882 l 136 882 z "},"ı":{"ha":271,"x_min":0,"x_max":136,"o":"m 136 814 l 136 0 l 0 0 l 0 543 l 0 814 l 68 814 l 136 814 z "},"№":{"ha":1289,"x_min":0,"x_max":1153,"o":"m 610 814 l 746 814 l 746 0 l 610 0 l 610 136 l 543 136 l 543 203 l 475 203 l 475 271 l 407 271 l 407 339 l 339 339 l 339 407 l 271 407 l 271 475 l 203 475 l 203 543 l 136 543 l 136 0 l 0 0 l 0 814 l 136 814 l 136 746 l 203 746 l 203 678 l 271 678 l 271 610 l 339 610 l 339 543 l 407 543 l 407 475 l 475 475 l 475 407 l 543 407 l 543 339 l 610 339 l 610 814 m 814 136 l 1153 136 l 1153 0 l 814 0 l 814 136 m 882 271 l 882 339 l 814 339 l 814 543 l 882 543 l 882 610 l 1085 610 l 1085 543 l 1153 543 l 1153 339 l 1085 339 l 1085 271 l 882 271 m 949 475 l 949 407 l 1017 407 l 1017 475 l 949 475 z "},"Α":{"ha":882,"x_min":0,"x_max":746,"o":"m 610 407 l 610 475 l 543 475 l 543 543 l 475 543 l 475 610 l 407 610 l 407 678 l 339 678 l 339 610 l 271 610 l 271 543 l 203 543 l 203 475 l 136 475 l 136 407 l 610 407 m 0 543 l 68 543 l 68 610 l 136 610 l 136 678 l 203 678 l 203 746 l 271 746 l 271 814 l 475 814 l 475 746 l 543 746 l 543 678 l 610 678 l 610 610 l 678 610 l 678 543 l 746 543 l 746 0 l 610 0 l 610 271 l 136 271 l 136 0 l 0 0 l 0 543 z "},"Β":{"ha":882,"x_min":0,"x_max":746,"o":"m 136 678 l 136 475 l 543 475 l 543 543 l 610 543 l 610 610 l 543 610 l 543 678 l 136 678 m 543 136 l 543 203 l 610 203 l 610 271 l 543 271 l 543 339 l 136 339 l 136 136 l 543 136 m 0 814 l 610 814 l 610 746 l 678 746 l 678 678 l 746 678 l 746 475 l 678 475 l 678 339 l 746 339 l 746 136 l 678 136 l 678 68 l 610 68 l 610 0 l 0 0 l 0 814 z "},"Γ":{"ha":882,"x_min":0,"x_max":746,"o":"m 0 814 l 746 814 l 746 678 l 136 678 l 136 0 l 0 0 l 0 814 z "},"Δ":{"ha":882,"x_min":0,"x_max":746,"o":"m 610 136 l 136 136 l 136 475 l 203 475 l 203 543 l 271 543 l 271 610 l 339 610 l 339 678 l 407 678 l 407 610 l 475 610 l 475 543 l 543 543 l 543 475 l 610 475 l 610 136 m 746 0 l 746 543 l 678 543 l 678 610 l 610 610 l 610 678 l 543 678 l 543 746 l 475 746 l 475 814 l 271 814 l 271 746 l 203 746 l 203 678 l 136 678 l 136 610 l 68 610 l 68 543 l 0 543 l 0 0 l 746 0 z "},"Ε":{"ha":882,"x_min":0,"x_max":746,"o":"m 0 814 l 746 814 l 746 678 l 136 678 l 136 475 l 610 475 l 610 339 l 136 339 l 136 136 l 746 136 l 746 0 l 0 0 l 0 814 z "},"Ζ":{"ha":882,"x_min":0,"x_max":746,"o":"m 0 678 l 0 814 l 746 814 l 746 678 l 678 678 l 678 610 l 610 610 l 610 543 l 543 543 l 543 475 l 475 475 l 475 407 l 407 407 l 407 339 l 339 339 l 339 271 l 271 271 l 271 203 l 203 203 l 203 136 l 746 136 l 746 0 l 0 0 l 0 203 l 68 203 l 68 271 l 136 271 l 136 339 l 203 339 l 203 407 l 271 407 l 271 475 l 339 475 l 339 543 l 407 543 l 407 610 l 475 610 l 475 678 l 0 678 z "},"Η":{"ha":882,"x_min":0,"x_max":746,"o":"m 610 339 l 136 339 l 136 0 l 0 0 l 0 814 l 136 814 l 136 475 l 610 475 l 610 814 l 746 814 l 746 0 l 610 0 l 610 339 z "},"Θ":{"ha":882,"x_min":0,"x_max":746,"o":"m 271 339 l 271 475 l 475 475 l 475 339 l 271 339 m 203 678 l 203 610 l 136 610 l 136 203 l 203 203 l 203 136 l 543 136 l 543 203 l 610 203 l 610 610 l 543 610 l 543 678 l 203 678 m 746 136 l 678 136 l 678 68 l 610 68 l 610 0 l 136 0 l 136 68 l 68 68 l 68 136 l 0 136 l 0 678 l 68 678 l 68 746 l 136 746 l 136 814 l 610 814 l 610 746 l 678 746 l 678 678 l 746 678 l 746 136 z "},"Ι":{"ha":543,"x_min":0,"x_max":408,"o":"m 407 136 l 407 0 l 0 0 l 0 136 l 136 136 l 136 678 l 0 678 l 0 814 l 407 814 l 407 678 l 271 678 l 271 136 l 407 136 z "},"Κ":{"ha":882,"x_min":0,"x_max":746,"o":"m 746 678 l 678 678 l 678 610 l 610 610 l 610 543 l 543 543 l 543 475 l 475 475 l 475 339 l 543 339 l 543 271 l 610 271 l 610 203 l 678 203 l 678 136 l 746 136 l 746 0 l 610 0 l 610 68 l 543 68 l 543 136 l 475 136 l 475 203 l 407 203 l 407 271 l 271 271 l 271 203 l 203 203 l 203 136 l 136 136 l 136 0 l 0 0 l 0 814 l 136 814 l 136 339 l 203 339 l 203 407 l 271 407 l 271 475 l 339 475 l 339 543 l 407 543 l 407 610 l 475 610 l 475 678 l 543 678 l 543 746 l 610 746 l 610 814 l 746 814 l 746 678 z "},"Λ":{"ha":882,"x_min":0,"x_max":746,"o":"m 746 543 l 678 543 l 678 610 l 610 610 l 610 678 l 543 678 l 543 746 l 475 746 l 475 814 l 271 814 l 271 746 l 203 746 l 203 678 l 136 678 l 136 610 l 68 610 l 68 543 l 0 543 l 0 0 l 136 0 l 136 475 l 203 475 l 203 543 l 271 543 l 271 610 l 339 610 l 339 678 l 407 678 l 407 610 l 475 610 l 475 543 l 543 543 l 543 475 l 610 475 l 610 0 l 746 0 l 746 543 z "},"Μ":{"ha":882,"x_min":0,"x_max":746,"o":"m 136 0 l 0 0 l 0 814 l 136 814 l 136 746 l 203 746 l 203 678 l 271 678 l 271 610 l 339 610 l 339 543 l 407 543 l 407 610 l 475 610 l 475 678 l 543 678 l 543 746 l 610 746 l 610 814 l 746 814 l 746 0 l 610 0 l 610 543 l 543 543 l 543 475 l 475 475 l 475 407 l 407 407 l 407 339 l 339 339 l 339 407 l 271 407 l 271 475 l 203 475 l 203 543 l 136 543 l 136 0 z "},"Ν":{"ha":882,"x_min":0,"x_max":746,"o":"m 610 814 l 746 814 l 746 0 l 610 0 l 610 136 l 543 136 l 543 203 l 475 203 l 475 271 l 407 271 l 407 339 l 339 339 l 339 407 l 271 407 l 271 475 l 203 475 l 203 543 l 136 543 l 136 0 l 0 0 l 0 814 l 136 814 l 136 746 l 203 746 l 203 678 l 271 678 l 271 610 l 339 610 l 339 543 l 407 543 l 407 475 l 475 475 l 475 407 l 543 407 l 543 339 l 610 339 l 610 814 z "},"Ξ":{"ha":882,"x_min":0,"x_max":746,"o":"m 0 814 l 746 814 l 746 678 l 0 678 l 0 814 m 0 136 l 746 136 l 746 0 l 0 0 l 0 136 m 136 475 l 610 475 l 610 339 l 136 339 l 136 475 z "},"Ο":{"ha":882,"x_min":0,"x_max":746,"o":"m 203 678 l 203 610 l 136 610 l 136 203 l 203 203 l 203 136 l 543 136 l 543 203 l 610 203 l 610 610 l 543 610 l 543 678 l 203 678 m 746 136 l 678 136 l 678 68 l 610 68 l 610 0 l 136 0 l 136 68 l 68 68 l 68 136 l 0 136 l 0 678 l 68 678 l 68 746 l 136 746 l 136 814 l 610 814 l 610 746 l 678 746 l 678 678 l 746 678 l 746 136 z "},"Π":{"ha":882,"x_min":0,"x_max":746,"o":"m 746 0 l 610 0 l 610 678 l 136 678 l 136 0 l 0 0 l 0 814 l 746 814 l 746 0 z "},"Ρ":{"ha":882,"x_min":0,"x_max":747,"o":"m 136 678 l 136 407 l 543 407 l 543 475 l 610 475 l 610 610 l 543 610 l 543 678 l 136 678 m 0 814 l 610 814 l 610 746 l 678 746 l 678 678 l 746 678 l 746 407 l 678 407 l 678 339 l 610 339 l 610 271 l 136 271 l 136 0 l 0 0 l 0 814 z "},"΢":{"ha":882,"x_min":0,"x_max":746,"o":"m 271 136 l 407 136 l 407 0 l 271 0 l 271 136 m 271 407 l 543 407 l 543 475 l 610 475 l 610 610 l 543 610 l 543 678 l 203 678 l 203 610 l 136 610 l 136 543 l 0 543 l 0 678 l 68 678 l 68 746 l 136 746 l 136 814 l 610 814 l 610 746 l 678 746 l 678 678 l 746 678 l 746 407 l 678 407 l 678 339 l 610 339 l 610 271 l 271 271 l 271 407 z "},"Σ":{"ha":882,"x_min":0,"x_max":746,"o":"m 407 271 l 407 339 l 475 339 l 475 475 l 407 475 l 407 543 l 339 543 l 339 610 l 271 610 l 271 678 l 746 678 l 746 814 l 0 814 l 0 678 l 68 678 l 68 610 l 136 610 l 136 543 l 203 543 l 203 475 l 271 475 l 271 339 l 203 339 l 203 271 l 136 271 l 136 203 l 68 203 l 68 136 l 0 136 l 0 0 l 746 0 l 746 136 l 271 136 l 271 203 l 339 203 l 339 271 l 407 271 z "},"Τ":{"ha":814,"x_min":0,"x_max":678,"o":"m 0 678 l 0 814 l 678 814 l 678 678 l 407 678 l 407 0 l 271 0 l 271 678 l 0 678 z "},"Υ":{"ha":814,"x_min":0,"x_max":678,"o":"m 678 543 l 610 543 l 610 475 l 543 475 l 543 407 l 475 407 l 475 339 l 407 339 l 407 0 l 271 0 l 271 339 l 203 339 l 203 407 l 136 407 l 136 475 l 68 475 l 68 543 l 0 543 l 0 814 l 136 814 l 136 610 l 203 610 l 203 543 l 271 543 l 271 475 l 407 475 l 407 543 l 475 543 l 475 610 l 543 610 l 543 814 l 678 814 l 678 543 z "},"Φ":{"ha":814,"x_min":0,"x_max":678,"o":"m 136 678 l 136 475 l 271 475 l 271 678 l 136 678 m 543 475 l 543 678 l 407 678 l 407 475 l 543 475 m 610 746 l 678 746 l 678 407 l 610 407 l 610 339 l 407 339 l 407 0 l 271 0 l 271 339 l 68 339 l 68 407 l 0 407 l 0 746 l 68 746 l 68 814 l 610 814 l 610 746 z "},"Χ":{"ha":882,"x_min":0,"x_max":746,"o":"m 746 678 l 678 678 l 678 610 l 610 610 l 610 543 l 543 543 l 543 475 l 475 475 l 475 339 l 543 339 l 543 271 l 610 271 l 610 203 l 678 203 l 678 136 l 746 136 l 746 0 l 610 0 l 610 68 l 543 68 l 543 136 l 475 136 l 475 203 l 407 203 l 407 271 l 339 271 l 339 203 l 271 203 l 271 136 l 203 136 l 203 68 l 136 68 l 136 0 l 0 0 l 0 136 l 68 136 l 68 203 l 136 203 l 136 271 l 203 271 l 203 339 l 271 339 l 271 475 l 203 475 l 203 543 l 136 543 l 136 610 l 68 610 l 68 678 l 0 678 l 0 814 l 136 814 l 136 746 l 203 746 l 203 678 l 271 678 l 271 610 l 339 610 l 339 543 l 407 543 l 407 610 l 475 610 l 475 678 l 543 678 l 543 746 l 610 746 l 610 814 l 746 814 l 746 678 z "},"Ψ":{"ha":814,"x_min":0,"x_max":678,"o":"m 271 475 l 271 814 l 407 814 l 407 475 l 475 475 l 475 543 l 543 543 l 543 814 l 678 814 l 678 475 l 610 475 l 610 407 l 543 407 l 543 339 l 407 339 l 407 0 l 271 0 l 271 339 l 136 339 l 136 407 l 68 407 l 68 475 l 0 475 l 0 814 l 136 814 l 136 543 l 203 543 l 203 475 l 271 475 z "},"Ω":{"ha":882,"x_min":0,"x_max":746,"o":"m 610 136 l 746 136 l 746 0 l 475 0 l 475 271 l 543 271 l 543 339 l 610 339 l 610 610 l 543 610 l 543 678 l 203 678 l 203 610 l 136 610 l 136 339 l 203 339 l 203 271 l 271 271 l 271 0 l 0 0 l 0 136 l 136 136 l 136 203 l 68 203 l 68 271 l 0 271 l 0 678 l 68 678 l 68 746 l 136 746 l 136 814 l 610 814 l 610 746 l 678 746 l 678 678 l 746 678 l 746 271 l 678 271 l 678 203 l 610 203 l 610 136 z "},"α":{"ha":882,"x_min":0,"x_max":746,"o":"m 610 407 l 610 475 l 543 475 l 543 543 l 475 543 l 475 610 l 407 610 l 407 678 l 339 678 l 339 610 l 271 610 l 271 543 l 203 543 l 203 475 l 136 475 l 136 407 l 610 407 m 0 543 l 68 543 l 68 610 l 136 610 l 136 678 l 203 678 l 203 746 l 271 746 l 271 814 l 475 814 l 475 746 l 543 746 l 543 678 l 610 678 l 610 610 l 678 610 l 678 543 l 746 543 l 746 0 l 610 0 l 610 271 l 136 271 l 136 0 l 0 0 l 0 543 z "},"β":{"ha":882,"x_min":0,"x_max":746,"o":"m 136 678 l 136 475 l 543 475 l 543 543 l 610 543 l 610 610 l 543 610 l 543 678 l 136 678 m 543 136 l 543 203 l 610 203 l 610 271 l 543 271 l 543 339 l 136 339 l 136 136 l 543 136 m 0 814 l 610 814 l 610 746 l 678 746 l 678 678 l 746 678 l 746 475 l 678 475 l 678 339 l 746 339 l 746 136 l 678 136 l 678 68 l 610 68 l 610 0 l 0 0 l 0 814 z "},"γ":{"ha":882,"x_min":0,"x_max":746,"o":"m 0 814 l 746 814 l 746 678 l 136 678 l 136 0 l 0 0 l 0 814 z "},"δ":{"ha":882,"x_min":0,"x_max":746,"o":"m 610 136 l 136 136 l 136 475 l 203 475 l 203 543 l 271 543 l 271 610 l 339 610 l 339 678 l 407 678 l 407 610 l 475 610 l 475 543 l 543 543 l 543 475 l 610 475 l 610 136 m 746 0 l 746 543 l 678 543 l 678 610 l 610 610 l 610 678 l 543 678 l 543 746 l 475 746 l 475 814 l 271 814 l 271 746 l 203 746 l 203 678 l 136 678 l 136 610 l 68 610 l 68 543 l 0 543 l 0 0 l 746 0 z "},"ε":{"ha":882,"x_min":0,"x_max":746,"o":"m 0 814 l 746 814 l 746 678 l 136 678 l 136 475 l 610 475 l 610 339 l 136 339 l 136 136 l 746 136 l 746 0 l 0 0 l 0 814 z "},"ζ":{"ha":882,"x_min":0,"x_max":746,"o":"m 0 678 l 0 814 l 746 814 l 746 678 l 678 678 l 678 610 l 610 610 l 610 543 l 543 543 l 543 475 l 475 475 l 475 407 l 407 407 l 407 339 l 339 339 l 339 271 l 271 271 l 271 203 l 203 203 l 203 136 l 746 136 l 746 0 l 0 0 l 0 203 l 68 203 l 68 271 l 136 271 l 136 339 l 203 339 l 203 407 l 271 407 l 271 475 l 339 475 l 339 543 l 407 543 l 407 610 l 475 610 l 475 678 l 0 678 z "},"η":{"ha":882,"x_min":0,"x_max":746,"o":"m 610 339 l 136 339 l 136 0 l 0 0 l 0 814 l 136 814 l 136 475 l 610 475 l 610 814 l 746 814 l 746 0 l 610 0 l 610 339 z "},"θ":{"ha":882,"x_min":0,"x_max":746,"o":"m 271 339 l 271 475 l 475 475 l 475 339 l 271 339 m 203 678 l 203 610 l 136 610 l 136 203 l 203 203 l 203 136 l 543 136 l 543 203 l 610 203 l 610 610 l 543 610 l 543 678 l 203 678 m 746 136 l 678 136 l 678 68 l 610 68 l 610 0 l 136 0 l 136 68 l 68 68 l 68 136 l 0 136 l 0 678 l 68 678 l 68 746 l 136 746 l 136 814 l 610 814 l 610 746 l 678 746 l 678 678 l 746 678 l 746 136 z "},"ι":{"ha":543,"x_min":0,"x_max":408,"o":"m 407 136 l 407 0 l 0 0 l 0 136 l 136 136 l 136 678 l 0 678 l 0 814 l 407 814 l 407 678 l 271 678 l 271 136 l 407 136 z "},"κ":{"ha":882,"x_min":0,"x_max":746,"o":"m 746 678 l 678 678 l 678 610 l 610 610 l 610 543 l 543 543 l 543 475 l 475 475 l 475 339 l 543 339 l 543 271 l 610 271 l 610 203 l 678 203 l 678 136 l 746 136 l 746 0 l 610 0 l 610 68 l 543 68 l 543 136 l 475 136 l 475 203 l 407 203 l 407 271 l 271 271 l 271 203 l 203 203 l 203 136 l 136 136 l 136 0 l 0 0 l 0 814 l 136 814 l 136 339 l 203 339 l 203 407 l 271 407 l 271 475 l 339 475 l 339 543 l 407 543 l 407 610 l 475 610 l 475 678 l 543 678 l 543 746 l 610 746 l 610 814 l 746 814 l 746 678 z "},"λ":{"ha":882,"x_min":0,"x_max":746,"o":"m 746 543 l 678 543 l 678 610 l 610 610 l 610 678 l 543 678 l 543 746 l 475 746 l 475 814 l 271 814 l 271 746 l 203 746 l 203 678 l 136 678 l 136 610 l 68 610 l 68 543 l 0 543 l 0 0 l 136 0 l 136 475 l 203 475 l 203 543 l 271 543 l 271 610 l 339 610 l 339 678 l 407 678 l 407 610 l 475 610 l 475 543 l 543 543 l 543 475 l 610 475 l 610 0 l 746 0 l 746 543 z "},"μ":{"ha":882,"x_min":0,"x_max":746,"o":"m 136 0 l 0 0 l 0 814 l 136 814 l 136 746 l 203 746 l 203 678 l 271 678 l 271 610 l 339 610 l 339 543 l 407 543 l 407 610 l 475 610 l 475 678 l 543 678 l 543 746 l 610 746 l 610 814 l 746 814 l 746 0 l 610 0 l 610 543 l 543 543 l 543 475 l 475 475 l 475 407 l 407 407 l 407 339 l 339 339 l 339 407 l 271 407 l 271 475 l 203 475 l 203 543 l 136 543 l 136 0 z "},"ν":{"ha":882,"x_min":0,"x_max":746,"o":"m 610 814 l 746 814 l 746 0 l 610 0 l 610 136 l 543 136 l 543 203 l 475 203 l 475 271 l 407 271 l 407 339 l 339 339 l 339 407 l 271 407 l 271 475 l 203 475 l 203 543 l 136 543 l 136 0 l 0 0 l 0 814 l 136 814 l 136 746 l 203 746 l 203 678 l 271 678 l 271 610 l 339 610 l 339 543 l 407 543 l 407 475 l 475 475 l 475 407 l 543 407 l 543 339 l 610 339 l 610 814 z "},"ξ":{"ha":882,"x_min":0,"x_max":746,"o":"m 0 814 l 746 814 l 746 678 l 0 678 l 0 814 m 0 136 l 746 136 l 746 0 l 0 0 l 0 136 m 136 475 l 610 475 l 610 339 l 136 339 l 136 475 z "},"ο":{"ha":882,"x_min":0,"x_max":746,"o":"m 203 678 l 203 610 l 136 610 l 136 203 l 203 203 l 203 136 l 543 136 l 543 203 l 610 203 l 610 610 l 543 610 l 543 678 l 203 678 m 746 136 l 678 136 l 678 68 l 610 68 l 610 0 l 136 0 l 136 68 l 68 68 l 68 136 l 0 136 l 0 678 l 68 678 l 68 746 l 136 746 l 136 814 l 610 814 l 610 746 l 678 746 l 678 678 l 746 678 l 746 136 z "},"π":{"ha":882,"x_min":0,"x_max":746,"o":"m 746 0 l 610 0 l 610 678 l 136 678 l 136 0 l 0 0 l 0 814 l 746 814 l 746 0 z "},"ρ":{"ha":882,"x_min":0,"x_max":747,"o":"m 136 678 l 136 407 l 543 407 l 543 475 l 610 475 l 610 610 l 543 610 l 543 678 l 136 678 m 0 814 l 610 814 l 610 746 l 678 746 l 678 678 l 746 678 l 746 407 l 678 407 l 678 339 l 610 339 l 610 271 l 136 271 l 136 0 l 0 0 l 0 814 z "},"ς":{"ha":882,"x_min":0,"x_max":746,"o":"m 407 271 l 407 339 l 475 339 l 475 475 l 407 475 l 407 543 l 339 543 l 339 610 l 271 610 l 271 678 l 746 678 l 746 814 l 0 814 l 0 678 l 68 678 l 68 610 l 136 610 l 136 543 l 203 543 l 203 475 l 271 475 l 271 339 l 203 339 l 203 271 l 136 271 l 136 203 l 68 203 l 68 136 l 0 136 l 0 0 l 746 0 l 746 136 l 271 136 l 271 203 l 339 203 l 339 271 l 407 271 z "},"σ":{"ha":882,"x_min":0,"x_max":746,"o":"m 407 271 l 407 339 l 475 339 l 475 475 l 407 475 l 407 543 l 339 543 l 339 610 l 271 610 l 271 678 l 746 678 l 746 814 l 0 814 l 0 678 l 68 678 l 68 610 l 136 610 l 136 543 l 203 543 l 203 475 l 271 475 l 271 339 l 203 339 l 203 271 l 136 271 l 136 203 l 68 203 l 68 136 l 0 136 l 0 0 l 746 0 l 746 136 l 271 136 l 271 203 l 339 203 l 339 271 l 407 271 z "},"τ":{"ha":814,"x_min":0,"x_max":678,"o":"m 0 678 l 0 814 l 678 814 l 678 678 l 407 678 l 407 0 l 271 0 l 271 678 l 0 678 z "},"υ":{"ha":814,"x_min":0,"x_max":678,"o":"m 678 543 l 610 543 l 610 475 l 543 475 l 543 407 l 475 407 l 475 339 l 407 339 l 407 0 l 271 0 l 271 339 l 203 339 l 203 407 l 136 407 l 136 475 l 68 475 l 68 543 l 0 543 l 0 814 l 136 814 l 136 610 l 203 610 l 203 543 l 271 543 l 271 475 l 407 475 l 407 543 l 475 543 l 475 610 l 543 610 l 543 814 l 678 814 l 678 543 z "},"φ":{"ha":814,"x_min":0,"x_max":678,"o":"m 136 678 l 136 475 l 271 475 l 271 678 l 136 678 m 543 475 l 543 678 l 407 678 l 407 475 l 543 475 m 610 746 l 678 746 l 678 407 l 610 407 l 610 339 l 407 339 l 407 0 l 271 0 l 271 339 l 68 339 l 68 407 l 0 407 l 0 746 l 68 746 l 68 814 l 610 814 l 610 746 z "},"χ":{"ha":882,"x_min":0,"x_max":746,"o":"m 746 678 l 678 678 l 678 610 l 610 610 l 610 543 l 543 543 l 543 475 l 475 475 l 475 339 l 543 339 l 543 271 l 610 271 l 610 203 l 678 203 l 678 136 l 746 136 l 746 0 l 610 0 l 610 68 l 543 68 l 543 136 l 475 136 l 475 203 l 407 203 l 407 271 l 339 271 l 339 203 l 271 203 l 271 136 l 203 136 l 203 68 l 136 68 l 136 0 l 0 0 l 0 136 l 68 136 l 68 203 l 136 203 l 136 271 l 203 271 l 203 339 l 271 339 l 271 475 l 203 475 l 203 543 l 136 543 l 136 610 l 68 610 l 68 678 l 0 678 l 0 814 l 136 814 l 136 746 l 203 746 l 203 678 l 271 678 l 271 610 l 339 610 l 339 543 l 407 543 l 407 610 l 475 610 l 475 678 l 543 678 l 543 746 l 610 746 l 610 814 l 746 814 l 746 678 z "},"ψ":{"ha":814,"x_min":0,"x_max":678,"o":"m 271 475 l 271 814 l 407 814 l 407 475 l 475 475 l 475 543 l 543 543 l 543 814 l 678 814 l 678 475 l 610 475 l 610 407 l 543 407 l 543 339 l 407 339 l 407 0 l 271 0 l 271 339 l 136 339 l 136 407 l 68 407 l 68 475 l 0 475 l 0 814 l 136 814 l 136 543 l 203 543 l 203 475 l 271 475 z "},"ω":{"ha":882,"x_min":0,"x_max":746,"o":"m 610 136 l 746 136 l 746 0 l 475 0 l 475 271 l 543 271 l 543 339 l 610 339 l 610 610 l 543 610 l 543 678 l 203 678 l 203 610 l 136 610 l 136 339 l 203 339 l 203 271 l 271 271 l 271 0 l 0 0 l 0 136 l 136 136 l 136 203 l 68 203 l 68 271 l 0 271 l 0 678 l 68 678 l 68 746 l 136 746 l 136 814 l 610 814 l 610 746 l 678 746 l 678 678 l 746 678 l 746 271 l 678 271 l 678 203 l 610 203 l 610 136 z "},"Ѐ":{"ha":882,"x_min":0,"x_max":746,"o":"m 339 949 l 339 882 l 407 882 l 407 949 l 339 949 m 339 949 l 271 949 l 271 1017 l 339 1017 l 339 949 m 0 814 l 746 814 l 746 678 l 136 678 l 136 475 l 610 475 l 610 339 l 136 339 l 136 136 l 746 136 l 746 0 l 0 0 l 0 814 z "},"Ё":{"ha":882,"x_min":0,"x_max":746,"o":"m 339 1017 l 339 882 l 203 882 l 203 1017 l 339 1017 m 0 814 l 746 814 l 746 678 l 136 678 l 136 475 l 610 475 l 610 339 l 136 339 l 136 136 l 746 136 l 746 0 l 0 0 l 0 814 m 543 1017 l 543 882 l 407 882 l 407 1017 l 543 1017 z "},"Ђ":{"ha":814,"x_min":0,"x_max":679,"o":"m 271 543 l 543 543 l 543 475 l 610 475 l 610 407 l 678 407 l 678 136 l 610 136 l 610 68 l 543 68 l 543 0 l 407 0 l 407 136 l 475 136 l 475 203 l 543 203 l 543 339 l 475 339 l 475 407 l 271 407 l 271 0 l 136 0 l 136 678 l 0 678 l 0 814 l 678 814 l 678 678 l 271 678 l 271 543 z "},"Ѓ":{"ha":882,"x_min":0,"x_max":746,"o":"m 0 814 l 746 814 l 746 678 l 136 678 l 136 0 l 0 0 l 0 814 z "},"Є":{"ha":882,"x_min":0,"x_max":746,"o":"m 136 475 l 407 475 l 407 339 l 136 339 l 136 203 l 203 203 l 203 136 l 543 136 l 543 203 l 610 203 l 610 271 l 746 271 l 746 136 l 678 136 l 678 68 l 610 68 l 610 0 l 136 0 l 136 68 l 68 68 l 68 136 l 0 136 l 0 678 l 68 678 l 68 746 l 136 746 l 136 814 l 610 814 l 610 746 l 678 746 l 678 678 l 746 678 l 746 543 l 610 543 l 610 610 l 543 610 l 543 678 l 203 678 l 203 610 l 136 610 l 136 475 z "},"Ѕ":{"ha":882,"x_min":0,"x_max":746,"o":"m 136 271 l 136 203 l 203 203 l 203 136 l 543 136 l 543 203 l 610 203 l 610 271 l 543 271 l 543 339 l 136 339 l 136 407 l 68 407 l 68 475 l 0 475 l 0 678 l 68 678 l 68 746 l 136 746 l 136 814 l 610 814 l 610 746 l 678 746 l 678 678 l 746 678 l 746 543 l 610 543 l 610 610 l 543 610 l 543 678 l 203 678 l 203 610 l 136 610 l 136 543 l 203 543 l 203 475 l 610 475 l 610 407 l 678 407 l 678 339 l 746 339 l 746 136 l 678 136 l 678 68 l 610 68 l 610 0 l 136 0 l 136 68 l 68 68 l 68 136 l 0 136 l 0 271 l 136 271 z "},"І":{"ha":543,"x_min":0,"x_max":408,"o":"m 407 136 l 407 0 l 0 0 l 0 136 l 136 136 l 136 678 l 0 678 l 0 814 l 407 814 l 407 678 l 271 678 l 271 136 l 407 136 z "},"Ї":{"ha":543,"x_min":0,"x_max":408,"o":"m 0 136 l 0 0 l 407 0 l 407 136 l 271 136 l 271 678 l 407 678 l 407 814 l 0 814 l 0 678 l 136 678 l 136 136 l 0 136 m 136 1017 l 136 882 l 0 882 l 0 1017 l 136 1017 m 407 1017 l 407 882 l 271 882 l 271 1017 l 407 1017 z "},"Ј":{"ha":882,"x_min":0,"x_max":746,"o":"m 136 339 l 136 203 l 203 203 l 203 136 l 543 136 l 543 203 l 610 203 l 610 678 l 475 678 l 475 814 l 746 814 l 746 136 l 678 136 l 678 68 l 610 68 l 610 0 l 136 0 l 136 68 l 68 68 l 68 136 l 0 136 l 0 339 l 136 339 z "},"Љ":{"ha":949,"x_min":0,"x_max":814,"o":"m 475 136 l 610 136 l 610 203 l 678 203 l 678 339 l 610 339 l 610 407 l 475 407 l 475 136 m 475 543 l 678 543 l 678 475 l 746 475 l 746 407 l 814 407 l 814 136 l 746 136 l 746 68 l 678 68 l 678 0 l 339 0 l 339 678 l 203 678 l 203 68 l 136 68 l 136 0 l 0 0 l 0 136 l 68 136 l 68 814 l 475 814 l 475 543 z "},"Њ":{"ha":949,"x_min":0,"x_max":814,"o":"m 475 136 l 610 136 l 610 203 l 678 203 l 678 339 l 610 339 l 610 407 l 475 407 l 475 136 m 339 475 l 339 814 l 475 814 l 475 543 l 678 543 l 678 475 l 746 475 l 746 407 l 814 407 l 814 136 l 746 136 l 746 68 l 678 68 l 678 0 l 339 0 l 339 339 l 136 339 l 136 0 l 0 0 l 0 814 l 136 814 l 136 475 l 339 475 z "},"Ћ":{"ha":814,"x_min":0,"x_max":679,"o":"m 271 543 l 543 543 l 543 475 l 610 475 l 610 407 l 678 407 l 678 0 l 543 0 l 543 339 l 475 339 l 475 407 l 271 407 l 271 0 l 136 0 l 136 678 l 0 678 l 0 814 l 678 814 l 678 678 l 271 678 l 271 543 z "},"Ќ":{"ha":882,"x_min":0,"x_max":746,"o":"m 407 882 l 475 882 l 475 949 l 407 949 l 407 882 m 407 882 l 407 814 l 339 814 l 339 882 l 407 882 m 746 678 l 678 678 l 678 610 l 610 610 l 610 543 l 543 543 l 543 475 l 475 475 l 475 339 l 543 339 l 543 271 l 610 271 l 610 203 l 678 203 l 678 136 l 746 136 l 746 0 l 610 0 l 610 68 l 543 68 l 543 136 l 475 136 l 475 203 l 407 203 l 407 271 l 271 271 l 271 203 l 203 203 l 203 136 l 136 136 l 136 0 l 0 0 l 0 814 l 136 814 l 136 339 l 203 339 l 203 407 l 271 407 l 271 475 l 339 475 l 339 543 l 407 543 l 407 610 l 475 610 l 475 678 l 543 678 l 543 746 l 610 746 l 610 814 l 746 814 l 746 678 z "},"Ѝ":{"ha":882,"x_min":0,"x_max":746,"o":"m 339 882 l 271 882 l 271 949 l 339 949 l 339 882 m 339 882 l 339 814 l 407 814 l 407 882 l 339 882 m 136 814 l 0 814 l 0 0 l 136 0 l 136 136 l 203 136 l 203 203 l 271 203 l 271 271 l 339 271 l 339 339 l 407 339 l 407 407 l 475 407 l 475 475 l 543 475 l 543 543 l 610 543 l 610 0 l 746 0 l 746 814 l 610 814 l 610 746 l 543 746 l 543 678 l 475 678 l 475 610 l 407 610 l 407 543 l 339 543 l 339 475 l 271 475 l 271 407 l 203 407 l 203 339 l 136 339 l 136 814 z "},"Ў":{"ha":814,"x_min":0,"x_max":678,"o":"m 407 882 l 203 882 l 203 814 l 407 814 l 407 882 m 407 882 l 407 949 l 475 949 l 475 882 l 407 882 m 543 814 l 678 814 l 678 543 l 610 543 l 610 475 l 543 475 l 543 407 l 475 407 l 475 339 l 407 339 l 407 271 l 339 271 l 339 203 l 271 203 l 271 136 l 203 136 l 203 68 l 136 68 l 136 0 l 0 0 l 0 136 l 68 136 l 68 203 l 136 203 l 136 271 l 203 271 l 203 407 l 136 407 l 136 475 l 68 475 l 68 543 l 0 543 l 0 814 l 136 814 l 136 610 l 203 610 l 203 543 l 271 543 l 271 475 l 407 475 l 407 543 l 475 543 l 475 610 l 543 610 l 543 814 m 203 882 l 136 882 l 136 949 l 203 949 l 203 882 z "},"Џ":{"ha":814,"x_min":0,"x_max":678,"o":"m 543 136 l 543 814 l 678 814 l 678 0 l 407 0 l 407 -136 l 271 -136 l 271 0 l 0 0 l 0 814 l 136 814 l 136 136 l 543 136 z "},"А":{"ha":882,"x_min":0,"x_max":746,"o":"m 610 407 l 610 475 l 543 475 l 543 543 l 475 543 l 475 610 l 407 610 l 407 678 l 339 678 l 339 610 l 271 610 l 271 543 l 203 543 l 203 475 l 136 475 l 136 407 l 610 407 m 0 543 l 68 543 l 68 610 l 136 610 l 136 678 l 203 678 l 203 746 l 271 746 l 271 814 l 475 814 l 475 746 l 543 746 l 543 678 l 610 678 l 610 610 l 678 610 l 678 543 l 746 543 l 746 0 l 610 0 l 610 271 l 136 271 l 136 0 l 0 0 l 0 543 z "},"Б":{"ha":882,"x_min":0,"x_max":746,"o":"m 543 136 l 543 203 l 610 203 l 610 271 l 543 271 l 543 339 l 136 339 l 136 136 l 543 136 m 678 339 l 746 339 l 746 136 l 678 136 l 678 68 l 610 68 l 610 0 l 0 0 l 0 814 l 746 814 l 746 678 l 136 678 l 136 475 l 610 475 l 610 407 l 678 407 l 678 339 z "},"В":{"ha":882,"x_min":0,"x_max":746,"o":"m 136 678 l 136 475 l 543 475 l 543 543 l 610 543 l 610 610 l 543 610 l 543 678 l 136 678 m 543 136 l 543 203 l 610 203 l 610 271 l 543 271 l 543 339 l 136 339 l 136 136 l 543 136 m 0 814 l 610 814 l 610 746 l 678 746 l 678 678 l 746 678 l 746 475 l 678 475 l 678 339 l 746 339 l 746 136 l 678 136 l 678 68 l 610 68 l 610 0 l 0 0 l 0 814 z "},"Г":{"ha":882,"x_min":0,"x_max":746,"o":"m 0 814 l 746 814 l 746 678 l 136 678 l 136 0 l 0 0 l 0 814 z "},"Д":{"ha":882,"x_min":0,"x_max":746,"o":"m 0 0 l 0 271 l 136 271 l 136 475 l 203 475 l 203 814 l 610 814 l 610 271 l 746 271 l 746 0 l 610 0 l 610 136 l 136 136 l 136 0 l 0 0 m 475 271 l 475 678 l 339 678 l 339 475 l 271 475 l 271 271 l 475 271 z "},"Е":{"ha":882,"x_min":0,"x_max":746,"o":"m 0 814 l 746 814 l 746 678 l 136 678 l 136 475 l 610 475 l 610 339 l 136 339 l 136 136 l 746 136 l 746 0 l 0 0 l 0 814 z "},"Ж":{"ha":949,"x_min":0,"x_max":814,"o":"m 339 610 l 339 814 l 475 814 l 475 610 l 543 610 l 543 678 l 610 678 l 610 746 l 678 746 l 678 814 l 814 814 l 814 678 l 746 678 l 746 610 l 678 610 l 678 543 l 610 543 l 610 475 l 543 475 l 543 339 l 610 339 l 610 271 l 678 271 l 678 203 l 746 203 l 746 136 l 814 136 l 814 0 l 678 0 l 678 68 l 610 68 l 610 136 l 543 136 l 543 203 l 475 203 l 475 0 l 339 0 l 339 203 l 271 203 l 271 136 l 203 136 l 203 68 l 136 68 l 136 0 l 0 0 l 0 136 l 68 136 l 68 203 l 136 203 l 136 271 l 203 271 l 203 339 l 271 339 l 271 475 l 203 475 l 203 543 l 136 543 l 136 610 l 68 610 l 68 678 l 0 678 l 0 814 l 136 814 l 136 746 l 203 746 l 203 678 l 271 678 l 271 610 l 339 610 z "},"З":{"ha":882,"x_min":0,"x_max":746,"o":"m 203 475 l 543 475 l 543 543 l 610 543 l 610 610 l 543 610 l 543 678 l 136 678 l 136 610 l 0 610 l 0 746 l 68 746 l 68 814 l 610 814 l 610 746 l 678 746 l 678 678 l 746 678 l 746 475 l 678 475 l 678 339 l 746 339 l 746 136 l 678 136 l 678 68 l 610 68 l 610 0 l 68 0 l 68 68 l 0 68 l 0 203 l 136 203 l 136 136 l 543 136 l 543 203 l 610 203 l 610 271 l 543 271 l 543 339 l 203 339 l 203 475 z "},"И":{"ha":882,"x_min":0,"x_max":746,"o":"m 136 814 l 0 814 l 0 0 l 136 0 l 136 136 l 203 136 l 203 203 l 271 203 l 271 271 l 339 271 l 339 339 l 407 339 l 407 407 l 475 407 l 475 475 l 543 475 l 543 543 l 610 543 l 610 0 l 746 0 l 746 814 l 610 814 l 610 746 l 543 746 l 543 678 l 475 678 l 475 610 l 407 610 l 407 543 l 339 543 l 339 475 l 271 475 l 271 407 l 203 407 l 203 339 l 136 339 l 136 814 z "},"Й":{"ha":882,"x_min":0,"x_max":746,"o":"m 136 814 l 0 814 l 0 0 l 136 0 l 136 136 l 203 136 l 203 203 l 271 203 l 271 271 l 339 271 l 339 339 l 407 339 l 407 407 l 475 407 l 475 475 l 543 475 l 543 543 l 610 543 l 610 0 l 746 0 l 746 814 l 610 814 l 610 746 l 543 746 l 543 678 l 475 678 l 475 610 l 407 610 l 407 543 l 339 543 l 339 475 l 271 475 l 271 407 l 203 407 l 203 339 l 136 339 l 136 814 m 475 882 l 271 882 l 271 814 l 475 814 l 475 882 m 271 882 l 203 882 l 203 949 l 271 949 l 271 882 m 475 882 l 475 949 l 543 949 l 543 882 l 475 882 z "},"К":{"ha":882,"x_min":0,"x_max":746,"o":"m 746 678 l 678 678 l 678 610 l 610 610 l 610 543 l 543 543 l 543 475 l 475 475 l 475 339 l 543 339 l 543 271 l 610 271 l 610 203 l 678 203 l 678 136 l 746 136 l 746 0 l 610 0 l 610 68 l 543 68 l 543 136 l 475 136 l 475 203 l 407 203 l 407 271 l 271 271 l 271 203 l 203 203 l 203 136 l 136 136 l 136 0 l 0 0 l 0 814 l 136 814 l 136 339 l 203 339 l 203 407 l 271 407 l 271 475 l 339 475 l 339 543 l 407 543 l 407 610 l 475 610 l 475 678 l 543 678 l 543 746 l 610 746 l 610 814 l 746 814 l 746 678 z "},"Л":{"ha":882,"x_min":0,"x_max":746,"o":"m 746 0 l 610 0 l 610 678 l 203 678 l 203 68 l 136 68 l 136 0 l 0 0 l 0 136 l 68 136 l 68 814 l 746 814 l 746 0 z "},"М":{"ha":882,"x_min":0,"x_max":746,"o":"m 136 0 l 0 0 l 0 814 l 136 814 l 136 746 l 203 746 l 203 678 l 271 678 l 271 610 l 339 610 l 339 543 l 407 543 l 407 610 l 475 610 l 475 678 l 543 678 l 543 746 l 610 746 l 610 814 l 746 814 l 746 0 l 610 0 l 610 543 l 543 543 l 543 475 l 475 475 l 475 407 l 407 407 l 407 339 l 339 339 l 339 407 l 271 407 l 271 475 l 203 475 l 203 543 l 136 543 l 136 0 z "},"Н":{"ha":882,"x_min":0,"x_max":746,"o":"m 610 339 l 136 339 l 136 0 l 0 0 l 0 814 l 136 814 l 136 475 l 610 475 l 610 814 l 746 814 l 746 0 l 610 0 l 610 339 z "},"О":{"ha":882,"x_min":0,"x_max":746,"o":"m 203 678 l 203 610 l 136 610 l 136 203 l 203 203 l 203 136 l 543 136 l 543 203 l 610 203 l 610 610 l 543 610 l 543 678 l 203 678 m 746 136 l 678 136 l 678 68 l 610 68 l 610 0 l 136 0 l 136 68 l 68 68 l 68 136 l 0 136 l 0 678 l 68 678 l 68 746 l 136 746 l 136 814 l 610 814 l 610 746 l 678 746 l 678 678 l 746 678 l 746 136 z "},"П":{"ha":882,"x_min":0,"x_max":746,"o":"m 746 0 l 610 0 l 610 678 l 136 678 l 136 0 l 0 0 l 0 814 l 746 814 l 746 0 z "},"Р":{"ha":882,"x_min":0,"x_max":747,"o":"m 136 678 l 136 407 l 543 407 l 543 475 l 610 475 l 610 610 l 543 610 l 543 678 l 136 678 m 0 814 l 610 814 l 610 746 l 678 746 l 678 678 l 746 678 l 746 407 l 678 407 l 678 339 l 610 339 l 610 271 l 136 271 l 136 0 l 0 0 l 0 814 z "},"С":{"ha":882,"x_min":0,"x_max":746,"o":"m 203 678 l 203 610 l 136 610 l 136 203 l 203 203 l 203 136 l 543 136 l 543 203 l 610 203 l 610 271 l 746 271 l 746 136 l 678 136 l 678 68 l 610 68 l 610 0 l 136 0 l 136 68 l 68 68 l 68 136 l 0 136 l 0 678 l 68 678 l 68 746 l 136 746 l 136 814 l 610 814 l 610 746 l 678 746 l 678 678 l 746 678 l 746 543 l 610 543 l 610 610 l 543 610 l 543 678 l 203 678 z "},"Т":{"ha":814,"x_min":0,"x_max":678,"o":"m 0 678 l 0 814 l 678 814 l 678 678 l 407 678 l 407 0 l 271 0 l 271 678 l 0 678 z "},"У":{"ha":814,"x_min":0,"x_max":678,"o":"m 543 814 l 678 814 l 678 543 l 610 543 l 610 475 l 543 475 l 543 407 l 475 407 l 475 339 l 407 339 l 407 271 l 339 271 l 339 203 l 271 203 l 271 136 l 203 136 l 203 68 l 136 68 l 136 0 l 0 0 l 0 136 l 68 136 l 68 203 l 136 203 l 136 271 l 203 271 l 203 407 l 136 407 l 136 475 l 68 475 l 68 543 l 0 543 l 0 814 l 136 814 l 136 610 l 203 610 l 203 543 l 271 543 l 271 475 l 407 475 l 407 543 l 475 543 l 475 610 l 543 610 l 543 814 z "},"Ф":{"ha":814,"x_min":0,"x_max":678,"o":"m 136 678 l 136 475 l 271 475 l 271 678 l 136 678 m 543 475 l 543 678 l 407 678 l 407 475 l 543 475 m 610 746 l 678 746 l 678 407 l 610 407 l 610 339 l 407 339 l 407 0 l 271 0 l 271 339 l 68 339 l 68 407 l 0 407 l 0 746 l 68 746 l 68 814 l 610 814 l 610 746 z "},"Х":{"ha":882,"x_min":0,"x_max":746,"o":"m 746 678 l 678 678 l 678 610 l 610 610 l 610 543 l 543 543 l 543 475 l 475 475 l 475 339 l 543 339 l 543 271 l 610 271 l 610 203 l 678 203 l 678 136 l 746 136 l 746 0 l 610 0 l 610 68 l 543 68 l 543 136 l 475 136 l 475 203 l 407 203 l 407 271 l 339 271 l 339 203 l 271 203 l 271 136 l 203 136 l 203 68 l 136 68 l 136 0 l 0 0 l 0 136 l 68 136 l 68 203 l 136 203 l 136 271 l 203 271 l 203 339 l 271 339 l 271 475 l 203 475 l 203 543 l 136 543 l 136 610 l 68 610 l 68 678 l 0 678 l 0 814 l 136 814 l 136 746 l 203 746 l 203 678 l 271 678 l 271 610 l 339 610 l 339 543 l 407 543 l 407 610 l 475 610 l 475 678 l 543 678 l 543 746 l 610 746 l 610 814 l 746 814 l 746 678 z "},"Ц":{"ha":882,"x_min":0,"x_max":746,"o":"m 678 136 l 746 136 l 746 -136 l 610 -136 l 610 0 l 0 0 l 0 814 l 136 814 l 136 136 l 543 136 l 543 814 l 678 814 l 678 136 z "},"Ч":{"ha":882,"x_min":0,"x_max":746,"o":"m 746 814 l 746 0 l 610 0 l 610 339 l 136 339 l 136 407 l 68 407 l 68 475 l 0 475 l 0 814 l 136 814 l 136 543 l 203 543 l 203 475 l 543 475 l 543 543 l 610 543 l 610 814 l 746 814 z "},"Ш":{"ha":814,"x_min":0,"x_max":678,"o":"m 678 0 l 0 0 l 0 814 l 136 814 l 136 136 l 271 136 l 271 543 l 407 543 l 407 136 l 543 136 l 543 814 l 678 814 l 678 0 z "},"Щ":{"ha":882,"x_min":0,"x_max":746,"o":"m 678 136 l 746 136 l 746 -136 l 610 -136 l 610 0 l 0 0 l 0 814 l 136 814 l 136 136 l 271 136 l 271 543 l 407 543 l 407 136 l 543 136 l 543 814 l 678 814 l 678 136 z "},"Ъ":{"ha":882,"x_min":0,"x_max":747,"o":"m 271 136 l 271 407 l 543 407 l 543 339 l 610 339 l 610 203 l 543 203 l 543 136 l 271 136 m 136 0 l 610 0 l 610 68 l 678 68 l 678 136 l 746 136 l 746 407 l 678 407 l 678 475 l 610 475 l 610 543 l 271 543 l 271 814 l 0 814 l 0 678 l 136 678 l 136 0 z "},"Ы":{"ha":882,"x_min":0,"x_max":746,"o":"m 136 136 l 136 407 l 339 407 l 339 339 l 407 339 l 407 203 l 339 203 l 339 136 l 136 136 m 0 0 l 407 0 l 407 68 l 475 68 l 475 136 l 543 136 l 543 407 l 475 407 l 475 475 l 407 475 l 407 543 l 136 543 l 136 814 l 0 814 l 0 0 m 746 814 l 746 0 l 610 0 l 610 543 l 610 814 l 678 814 l 746 814 z "},"Ь":{"ha":882,"x_min":0,"x_max":747,"o":"m 136 136 l 136 407 l 543 407 l 543 339 l 610 339 l 610 203 l 543 203 l 543 136 l 136 136 m 0 0 l 610 0 l 610 68 l 678 68 l 678 136 l 746 136 l 746 407 l 678 407 l 678 475 l 610 475 l 610 543 l 136 543 l 136 814 l 0 814 l 0 0 z "},"Э":{"ha":882,"x_min":0,"x_max":746,"o":"m 610 475 l 339 475 l 339 339 l 610 339 l 610 203 l 543 203 l 543 136 l 203 136 l 203 203 l 136 203 l 136 271 l 0 271 l 0 136 l 68 136 l 68 68 l 136 68 l 136 0 l 610 0 l 610 68 l 678 68 l 678 136 l 746 136 l 746 678 l 678 678 l 678 746 l 610 746 l 610 814 l 136 814 l 136 746 l 68 746 l 68 678 l 0 678 l 0 543 l 136 543 l 136 610 l 203 610 l 203 678 l 543 678 l 543 610 l 610 610 l 610 475 z "},"Ю":{"ha":1085,"x_min":0,"x_max":949,"o":"m 407 678 l 407 610 l 339 610 l 339 203 l 407 203 l 407 136 l 746 136 l 746 203 l 814 203 l 814 610 l 746 610 l 746 678 l 407 678 m 203 475 l 203 678 l 271 678 l 271 746 l 339 746 l 339 814 l 814 814 l 814 746 l 882 746 l 882 678 l 949 678 l 949 136 l 882 136 l 882 68 l 814 68 l 814 0 l 339 0 l 339 68 l 271 68 l 271 136 l 203 136 l 203 339 l 136 339 l 136 0 l 0 0 l 0 814 l 136 814 l 136 475 l 203 475 z "},"Я":{"ha":882,"x_min":0,"x_max":746,"o":"m 610 678 l 610 407 l 203 407 l 203 475 l 136 475 l 136 610 l 203 610 l 203 678 l 610 678 m 746 814 l 136 814 l 136 746 l 68 746 l 68 678 l 0 678 l 0 407 l 68 407 l 68 339 l 136 339 l 136 203 l 68 203 l 68 136 l 0 136 l 0 0 l 136 0 l 136 68 l 203 68 l 203 136 l 271 136 l 271 203 l 339 203 l 339 271 l 610 271 l 610 0 l 746 0 l 746 814 z "},"а":{"ha":882,"x_min":0,"x_max":746,"o":"m 610 407 l 610 475 l 543 475 l 543 543 l 475 543 l 475 610 l 407 610 l 407 678 l 339 678 l 339 610 l 271 610 l 271 543 l 203 543 l 203 475 l 136 475 l 136 407 l 610 407 m 0 543 l 68 543 l 68 610 l 136 610 l 136 678 l 203 678 l 203 746 l 271 746 l 271 814 l 475 814 l 475 746 l 543 746 l 543 678 l 610 678 l 610 610 l 678 610 l 678 543 l 746 543 l 746 0 l 610 0 l 610 271 l 136 271 l 136 0 l 0 0 l 0 543 z "},"б":{"ha":882,"x_min":0,"x_max":746,"o":"m 543 136 l 543 203 l 610 203 l 610 271 l 543 271 l 543 339 l 136 339 l 136 136 l 543 136 m 678 339 l 746 339 l 746 136 l 678 136 l 678 68 l 610 68 l 610 0 l 0 0 l 0 814 l 746 814 l 746 678 l 136 678 l 136 475 l 610 475 l 610 407 l 678 407 l 678 339 z "},"в":{"ha":882,"x_min":0,"x_max":746,"o":"m 136 678 l 136 475 l 543 475 l 543 543 l 610 543 l 610 610 l 543 610 l 543 678 l 136 678 m 543 136 l 543 203 l 610 203 l 610 271 l 543 271 l 543 339 l 136 339 l 136 136 l 543 136 m 0 814 l 610 814 l 610 746 l 678 746 l 678 678 l 746 678 l 746 475 l 678 475 l 678 339 l 746 339 l 746 136 l 678 136 l 678 68 l 610 68 l 610 0 l 0 0 l 0 814 z "},"г":{"ha":882,"x_min":0,"x_max":746,"o":"m 0 814 l 746 814 l 746 678 l 136 678 l 136 0 l 0 0 l 0 814 z "},"д":{"ha":882,"x_min":0,"x_max":746,"o":"m 0 0 l 0 271 l 136 271 l 136 475 l 203 475 l 203 814 l 610 814 l 610 271 l 746 271 l 746 0 l 610 0 l 610 136 l 136 136 l 136 0 l 0 0 m 475 271 l 475 678 l 339 678 l 339 475 l 271 475 l 271 271 l 475 271 z "},"е":{"ha":882,"x_min":0,"x_max":746,"o":"m 0 814 l 746 814 l 746 678 l 136 678 l 136 475 l 610 475 l 610 339 l 136 339 l 136 136 l 746 136 l 746 0 l 0 0 l 0 814 z "},"ж":{"ha":949,"x_min":0,"x_max":814,"o":"m 339 610 l 339 814 l 475 814 l 475 610 l 543 610 l 543 678 l 610 678 l 610 746 l 678 746 l 678 814 l 814 814 l 814 678 l 746 678 l 746 610 l 678 610 l 678 543 l 610 543 l 610 475 l 543 475 l 543 339 l 610 339 l 610 271 l 678 271 l 678 203 l 746 203 l 746 136 l 814 136 l 814 0 l 678 0 l 678 68 l 610 68 l 610 136 l 543 136 l 543 203 l 475 203 l 475 0 l 339 0 l 339 203 l 271 203 l 271 136 l 203 136 l 203 68 l 136 68 l 136 0 l 0 0 l 0 136 l 68 136 l 68 203 l 136 203 l 136 271 l 203 271 l 203 339 l 271 339 l 271 475 l 203 475 l 203 543 l 136 543 l 136 610 l 68 610 l 68 678 l 0 678 l 0 814 l 136 814 l 136 746 l 203 746 l 203 678 l 271 678 l 271 610 l 339 610 z "},"з":{"ha":882,"x_min":0,"x_max":746,"o":"m 203 475 l 543 475 l 543 543 l 610 543 l 610 610 l 543 610 l 543 678 l 136 678 l 136 610 l 0 610 l 0 746 l 68 746 l 68 814 l 610 814 l 610 746 l 678 746 l 678 678 l 746 678 l 746 475 l 678 475 l 678 339 l 746 339 l 746 136 l 678 136 l 678 68 l 610 68 l 610 0 l 68 0 l 68 68 l 0 68 l 0 203 l 136 203 l 136 136 l 543 136 l 543 203 l 610 203 l 610 271 l 543 271 l 543 339 l 203 339 l 203 475 z "},"и":{"ha":882,"x_min":0,"x_max":746,"o":"m 136 814 l 0 814 l 0 0 l 136 0 l 136 136 l 203 136 l 203 203 l 271 203 l 271 271 l 339 271 l 339 339 l 407 339 l 407 407 l 475 407 l 475 475 l 543 475 l 543 543 l 610 543 l 610 0 l 746 0 l 746 814 l 610 814 l 610 746 l 543 746 l 543 678 l 475 678 l 475 610 l 407 610 l 407 543 l 339 543 l 339 475 l 271 475 l 271 407 l 203 407 l 203 339 l 136 339 l 136 814 z "},"й":{"ha":882,"x_min":0,"x_max":746,"o":"m 136 814 l 0 814 l 0 0 l 136 0 l 136 136 l 203 136 l 203 203 l 271 203 l 271 271 l 339 271 l 339 339 l 407 339 l 407 407 l 475 407 l 475 475 l 543 475 l 543 543 l 610 543 l 610 0 l 746 0 l 746 814 l 610 814 l 610 746 l 543 746 l 543 678 l 475 678 l 475 610 l 407 610 l 407 543 l 339 543 l 339 475 l 271 475 l 271 407 l 203 407 l 203 339 l 136 339 l 136 814 m 475 882 l 271 882 l 271 814 l 475 814 l 475 882 m 271 882 l 203 882 l 203 949 l 271 949 l 271 882 m 475 882 l 475 949 l 543 949 l 543 882 l 475 882 z "},"к":{"ha":882,"x_min":0,"x_max":746,"o":"m 746 678 l 678 678 l 678 610 l 610 610 l 610 543 l 543 543 l 543 475 l 475 475 l 475 339 l 543 339 l 543 271 l 610 271 l 610 203 l 678 203 l 678 136 l 746 136 l 746 0 l 610 0 l 610 68 l 543 68 l 543 136 l 475 136 l 475 203 l 407 203 l 407 271 l 271 271 l 271 203 l 203 203 l 203 136 l 136 136 l 136 0 l 0 0 l 0 814 l 136 814 l 136 339 l 203 339 l 203 407 l 271 407 l 271 475 l 339 475 l 339 543 l 407 543 l 407 610 l 475 610 l 475 678 l 543 678 l 543 746 l 610 746 l 610 814 l 746 814 l 746 678 z "},"л":{"ha":882,"x_min":0,"x_max":746,"o":"m 746 0 l 610 0 l 610 678 l 203 678 l 203 68 l 136 68 l 136 0 l 0 0 l 0 136 l 68 136 l 68 814 l 746 814 l 746 0 z "},"м":{"ha":882,"x_min":0,"x_max":746,"o":"m 136 0 l 0 0 l 0 814 l 136 814 l 136 746 l 203 746 l 203 678 l 271 678 l 271 610 l 339 610 l 339 543 l 407 543 l 407 610 l 475 610 l 475 678 l 543 678 l 543 746 l 610 746 l 610 814 l 746 814 l 746 0 l 610 0 l 610 543 l 543 543 l 543 475 l 475 475 l 475 407 l 407 407 l 407 339 l 339 339 l 339 407 l 271 407 l 271 475 l 203 475 l 203 543 l 136 543 l 136 0 z "},"н":{"ha":882,"x_min":0,"x_max":746,"o":"m 610 339 l 136 339 l 136 0 l 0 0 l 0 814 l 136 814 l 136 475 l 610 475 l 610 814 l 746 814 l 746 0 l 610 0 l 610 339 z "},"о":{"ha":882,"x_min":0,"x_max":746,"o":"m 203 678 l 203 610 l 136 610 l 136 203 l 203 203 l 203 136 l 543 136 l 543 203 l 610 203 l 610 610 l 543 610 l 543 678 l 203 678 m 746 136 l 678 136 l 678 68 l 610 68 l 610 0 l 136 0 l 136 68 l 68 68 l 68 136 l 0 136 l 0 678 l 68 678 l 68 746 l 136 746 l 136 814 l 610 814 l 610 746 l 678 746 l 678 678 l 746 678 l 746 136 z "},"п":{"ha":882,"x_min":0,"x_max":746,"o":"m 746 0 l 610 0 l 610 678 l 136 678 l 136 0 l 0 0 l 0 814 l 746 814 l 746 0 z "},"р":{"ha":882,"x_min":0,"x_max":747,"o":"m 136 678 l 136 407 l 543 407 l 543 475 l 610 475 l 610 610 l 543 610 l 543 678 l 136 678 m 0 814 l 610 814 l 610 746 l 678 746 l 678 678 l 746 678 l 746 407 l 678 407 l 678 339 l 610 339 l 610 271 l 136 271 l 136 0 l 0 0 l 0 814 z "},"с":{"ha":882,"x_min":0,"x_max":746,"o":"m 203 678 l 203 610 l 136 610 l 136 203 l 203 203 l 203 136 l 543 136 l 543 203 l 610 203 l 610 271 l 746 271 l 746 136 l 678 136 l 678 68 l 610 68 l 610 0 l 136 0 l 136 68 l 68 68 l 68 136 l 0 136 l 0 678 l 68 678 l 68 746 l 136 746 l 136 814 l 610 814 l 610 746 l 678 746 l 678 678 l 746 678 l 746 543 l 610 543 l 610 610 l 543 610 l 543 678 l 203 678 z "},"т":{"ha":814,"x_min":0,"x_max":678,"o":"m 0 678 l 0 814 l 678 814 l 678 678 l 407 678 l 407 0 l 271 0 l 271 678 l 0 678 z "},"у":{"ha":814,"x_min":0,"x_max":678,"o":"m 543 814 l 678 814 l 678 543 l 610 543 l 610 475 l 543 475 l 543 407 l 475 407 l 475 339 l 407 339 l 407 271 l 339 271 l 339 203 l 271 203 l 271 136 l 203 136 l 203 68 l 136 68 l 136 0 l 0 0 l 0 136 l 68 136 l 68 203 l 136 203 l 136 271 l 203 271 l 203 407 l 136 407 l 136 475 l 68 475 l 68 543 l 0 543 l 0 814 l 136 814 l 136 610 l 203 610 l 203 543 l 271 543 l 271 475 l 407 475 l 407 543 l 475 543 l 475 610 l 543 610 l 543 814 z "},"ф":{"ha":814,"x_min":0,"x_max":678,"o":"m 136 678 l 136 475 l 271 475 l 271 678 l 136 678 m 543 475 l 543 678 l 407 678 l 407 475 l 543 475 m 610 746 l 678 746 l 678 407 l 610 407 l 610 339 l 407 339 l 407 0 l 271 0 l 271 339 l 68 339 l 68 407 l 0 407 l 0 746 l 68 746 l 68 814 l 610 814 l 610 746 z "},"х":{"ha":882,"x_min":0,"x_max":746,"o":"m 746 678 l 678 678 l 678 610 l 610 610 l 610 543 l 543 543 l 543 475 l 475 475 l 475 339 l 543 339 l 543 271 l 610 271 l 610 203 l 678 203 l 678 136 l 746 136 l 746 0 l 610 0 l 610 68 l 543 68 l 543 136 l 475 136 l 475 203 l 407 203 l 407 271 l 339 271 l 339 203 l 271 203 l 271 136 l 203 136 l 203 68 l 136 68 l 136 0 l 0 0 l 0 136 l 68 136 l 68 203 l 136 203 l 136 271 l 203 271 l 203 339 l 271 339 l 271 475 l 203 475 l 203 543 l 136 543 l 136 610 l 68 610 l 68 678 l 0 678 l 0 814 l 136 814 l 136 746 l 203 746 l 203 678 l 271 678 l 271 610 l 339 610 l 339 543 l 407 543 l 407 610 l 475 610 l 475 678 l 543 678 l 543 746 l 610 746 l 610 814 l 746 814 l 746 678 z "},"ц":{"ha":882,"x_min":0,"x_max":746,"o":"m 678 136 l 746 136 l 746 -136 l 610 -136 l 610 0 l 0 0 l 0 814 l 136 814 l 136 136 l 543 136 l 543 814 l 678 814 l 678 136 z "},"ч":{"ha":882,"x_min":0,"x_max":746,"o":"m 746 814 l 746 0 l 610 0 l 610 339 l 136 339 l 136 407 l 68 407 l 68 475 l 0 475 l 0 814 l 136 814 l 136 543 l 203 543 l 203 475 l 543 475 l 543 543 l 610 543 l 610 814 l 746 814 z "},"ш":{"ha":814,"x_min":0,"x_max":678,"o":"m 678 0 l 0 0 l 0 814 l 136 814 l 136 136 l 271 136 l 271 543 l 407 543 l 407 136 l 543 136 l 543 814 l 678 814 l 678 0 z "},"щ":{"ha":882,"x_min":0,"x_max":746,"o":"m 678 136 l 746 136 l 746 -136 l 610 -136 l 610 0 l 0 0 l 0 814 l 136 814 l 136 136 l 271 136 l 271 543 l 407 543 l 407 136 l 543 136 l 543 814 l 678 814 l 678 136 z "},"ъ":{"ha":882,"x_min":0,"x_max":747,"o":"m 271 136 l 271 407 l 543 407 l 543 339 l 610 339 l 610 203 l 543 203 l 543 136 l 271 136 m 136 0 l 610 0 l 610 68 l 678 68 l 678 136 l 746 136 l 746 407 l 678 407 l 678 475 l 610 475 l 610 543 l 271 543 l 271 814 l 0 814 l 0 678 l 136 678 l 136 0 z "},"ы":{"ha":882,"x_min":0,"x_max":746,"o":"m 136 136 l 136 407 l 339 407 l 339 339 l 407 339 l 407 203 l 339 203 l 339 136 l 136 136 m 0 0 l 407 0 l 407 68 l 475 68 l 475 136 l 543 136 l 543 407 l 475 407 l 475 475 l 407 475 l 407 543 l 136 543 l 136 814 l 0 814 l 0 0 m 746 814 l 746 0 l 610 0 l 610 543 l 610 814 l 678 814 l 746 814 z "},"ь":{"ha":882,"x_min":0,"x_max":747,"o":"m 136 136 l 136 407 l 543 407 l 543 339 l 610 339 l 610 203 l 543 203 l 543 136 l 136 136 m 0 0 l 610 0 l 610 68 l 678 68 l 678 136 l 746 136 l 746 407 l 678 407 l 678 475 l 610 475 l 610 543 l 136 543 l 136 814 l 0 814 l 0 0 z "},"э":{"ha":882,"x_min":0,"x_max":746,"o":"m 610 475 l 339 475 l 339 339 l 610 339 l 610 203 l 543 203 l 543 136 l 203 136 l 203 203 l 136 203 l 136 271 l 0 271 l 0 136 l 68 136 l 68 68 l 136 68 l 136 0 l 610 0 l 610 68 l 678 68 l 678 136 l 746 136 l 746 678 l 678 678 l 678 746 l 610 746 l 610 814 l 136 814 l 136 746 l 68 746 l 68 678 l 0 678 l 0 543 l 136 543 l 136 610 l 203 610 l 203 678 l 543 678 l 543 610 l 610 610 l 610 475 z "},"ю":{"ha":1085,"x_min":0,"x_max":949,"o":"m 407 678 l 407 610 l 339 610 l 339 203 l 407 203 l 407 136 l 746 136 l 746 203 l 814 203 l 814 610 l 746 610 l 746 678 l 407 678 m 203 475 l 203 678 l 271 678 l 271 746 l 339 746 l 339 814 l 814 814 l 814 746 l 882 746 l 882 678 l 949 678 l 949 136 l 882 136 l 882 68 l 814 68 l 814 0 l 339 0 l 339 68 l 271 68 l 271 136 l 203 136 l 203 339 l 136 339 l 136 0 l 0 0 l 0 814 l 136 814 l 136 475 l 203 475 z "},"я":{"ha":882,"x_min":0,"x_max":746,"o":"m 610 678 l 610 407 l 203 407 l 203 475 l 136 475 l 136 610 l 203 610 l 203 678 l 610 678 m 746 814 l 136 814 l 136 746 l 68 746 l 68 678 l 0 678 l 0 407 l 68 407 l 68 339 l 136 339 l 136 203 l 68 203 l 68 136 l 0 136 l 0 0 l 136 0 l 136 68 l 203 68 l 203 136 l 271 136 l 271 203 l 339 203 l 339 271 l 610 271 l 610 0 l 746 0 l 746 814 z "},"ѐ":{"ha":882,"x_min":0,"x_max":746,"o":"m 339 949 l 339 882 l 407 882 l 407 949 l 339 949 m 339 949 l 271 949 l 271 1017 l 339 1017 l 339 949 m 0 814 l 746 814 l 746 678 l 136 678 l 136 475 l 610 475 l 610 339 l 136 339 l 136 136 l 746 136 l 746 0 l 0 0 l 0 814 z "},"ё":{"ha":882,"x_min":0,"x_max":746,"o":"m 339 1017 l 339 882 l 203 882 l 203 1017 l 339 1017 m 0 814 l 746 814 l 746 678 l 136 678 l 136 475 l 610 475 l 610 339 l 136 339 l 136 136 l 746 136 l 746 0 l 0 0 l 0 814 m 543 1017 l 543 882 l 407 882 l 407 1017 l 543 1017 z "},"ђ":{"ha":814,"x_min":0,"x_max":679,"o":"m 271 543 l 543 543 l 543 475 l 610 475 l 610 407 l 678 407 l 678 136 l 610 136 l 610 68 l 543 68 l 543 0 l 407 0 l 407 136 l 475 136 l 475 203 l 543 203 l 543 339 l 475 339 l 475 407 l 271 407 l 271 0 l 136 0 l 136 678 l 0 678 l 0 814 l 678 814 l 678 678 l 271 678 l 271 543 z "},"ѓ":{"ha":882,"x_min":0,"x_max":746,"o":"m 0 814 l 746 814 l 746 678 l 136 678 l 136 0 l 0 0 l 0 814 z "},"є":{"ha":882,"x_min":0,"x_max":746,"o":"m 136 475 l 407 475 l 407 339 l 136 339 l 136 203 l 203 203 l 203 136 l 543 136 l 543 203 l 610 203 l 610 271 l 746 271 l 746 136 l 678 136 l 678 68 l 610 68 l 610 0 l 136 0 l 136 68 l 68 68 l 68 136 l 0 136 l 0 678 l 68 678 l 68 746 l 136 746 l 136 814 l 610 814 l 610 746 l 678 746 l 678 678 l 746 678 l 746 543 l 610 543 l 610 610 l 543 610 l 543 678 l 203 678 l 203 610 l 136 610 l 136 475 z "},"ѕ":{"ha":882,"x_min":0,"x_max":746,"o":"m 136 271 l 136 203 l 203 203 l 203 136 l 543 136 l 543 203 l 610 203 l 610 271 l 543 271 l 543 339 l 136 339 l 136 407 l 68 407 l 68 475 l 0 475 l 0 678 l 68 678 l 68 746 l 136 746 l 136 814 l 610 814 l 610 746 l 678 746 l 678 678 l 746 678 l 746 543 l 610 543 l 610 610 l 543 610 l 543 678 l 203 678 l 203 610 l 136 610 l 136 543 l 203 543 l 203 475 l 610 475 l 610 407 l 678 407 l 678 339 l 746 339 l 746 136 l 678 136 l 678 68 l 610 68 l 610 0 l 136 0 l 136 68 l 68 68 l 68 136 l 0 136 l 0 271 l 136 271 z "},"і":{"ha":543,"x_min":0,"x_max":408,"o":"m 407 136 l 407 0 l 0 0 l 0 136 l 136 136 l 136 678 l 0 678 l 0 814 l 407 814 l 407 678 l 271 678 l 271 136 l 407 136 z "},"ї":{"ha":543,"x_min":0,"x_max":408,"o":"m 0 136 l 0 0 l 407 0 l 407 136 l 271 136 l 271 678 l 407 678 l 407 814 l 0 814 l 0 678 l 136 678 l 136 136 l 0 136 m 136 1017 l 136 882 l 0 882 l 0 1017 l 136 1017 m 407 1017 l 407 882 l 271 882 l 271 1017 l 407 1017 z "},"ј":{"ha":882,"x_min":0,"x_max":746,"o":"m 136 339 l 136 203 l 203 203 l 203 136 l 543 136 l 543 203 l 610 203 l 610 678 l 475 678 l 475 814 l 746 814 l 746 136 l 678 136 l 678 68 l 610 68 l 610 0 l 136 0 l 136 68 l 68 68 l 68 136 l 0 136 l 0 339 l 136 339 z "},"љ":{"ha":949,"x_min":0,"x_max":814,"o":"m 475 136 l 610 136 l 610 203 l 678 203 l 678 339 l 610 339 l 610 407 l 475 407 l 475 136 m 475 543 l 678 543 l 678 475 l 746 475 l 746 407 l 814 407 l 814 136 l 746 136 l 746 68 l 678 68 l 678 0 l 339 0 l 339 678 l 203 678 l 203 68 l 136 68 l 136 0 l 0 0 l 0 136 l 68 136 l 68 814 l 475 814 l 475 543 z "},"њ":{"ha":949,"x_min":0,"x_max":814,"o":"m 475 136 l 610 136 l 610 203 l 678 203 l 678 339 l 610 339 l 610 407 l 475 407 l 475 136 m 339 475 l 339 814 l 475 814 l 475 543 l 678 543 l 678 475 l 746 475 l 746 407 l 814 407 l 814 136 l 746 136 l 746 68 l 678 68 l 678 0 l 339 0 l 339 339 l 136 339 l 136 0 l 0 0 l 0 814 l 136 814 l 136 475 l 339 475 z "},"ћ":{"ha":814,"x_min":0,"x_max":679,"o":"m 271 543 l 543 543 l 543 475 l 610 475 l 610 407 l 678 407 l 678 0 l 543 0 l 543 339 l 475 339 l 475 407 l 271 407 l 271 0 l 136 0 l 136 678 l 0 678 l 0 814 l 678 814 l 678 678 l 271 678 l 271 543 z "},"ќ":{"ha":882,"x_min":0,"x_max":746,"o":"m 407 882 l 475 882 l 475 949 l 407 949 l 407 882 m 407 882 l 407 814 l 339 814 l 339 882 l 407 882 m 746 678 l 678 678 l 678 610 l 610 610 l 610 543 l 543 543 l 543 475 l 475 475 l 475 339 l 543 339 l 543 271 l 610 271 l 610 203 l 678 203 l 678 136 l 746 136 l 746 0 l 610 0 l 610 68 l 543 68 l 543 136 l 475 136 l 475 203 l 407 203 l 407 271 l 271 271 l 271 203 l 203 203 l 203 136 l 136 136 l 136 0 l 0 0 l 0 814 l 136 814 l 136 339 l 203 339 l 203 407 l 271 407 l 271 475 l 339 475 l 339 543 l 407 543 l 407 610 l 475 610 l 475 678 l 543 678 l 543 746 l 610 746 l 610 814 l 746 814 l 746 678 z "},"ѝ":{"ha":882,"x_min":0,"x_max":746,"o":"m 339 882 l 271 882 l 271 949 l 339 949 l 339 882 m 339 882 l 339 814 l 407 814 l 407 882 l 339 882 m 136 814 l 0 814 l 0 0 l 136 0 l 136 136 l 203 136 l 203 203 l 271 203 l 271 271 l 339 271 l 339 339 l 407 339 l 407 407 l 475 407 l 475 475 l 543 475 l 543 543 l 610 543 l 610 0 l 746 0 l 746 814 l 610 814 l 610 746 l 543 746 l 543 678 l 475 678 l 475 610 l 407 610 l 407 543 l 339 543 l 339 475 l 271 475 l 271 407 l 203 407 l 203 339 l 136 339 l 136 814 z "},"ў":{"ha":814,"x_min":0,"x_max":678,"o":"m 407 882 l 203 882 l 203 814 l 407 814 l 407 882 m 407 882 l 407 949 l 475 949 l 475 882 l 407 882 m 543 814 l 678 814 l 678 543 l 610 543 l 610 475 l 543 475 l 543 407 l 475 407 l 475 339 l 407 339 l 407 271 l 339 271 l 339 203 l 271 203 l 271 136 l 203 136 l 203 68 l 136 68 l 136 0 l 0 0 l 0 136 l 68 136 l 68 203 l 136 203 l 136 271 l 203 271 l 203 407 l 136 407 l 136 475 l 68 475 l 68 543 l 0 543 l 0 814 l 136 814 l 136 610 l 203 610 l 203 543 l 271 543 l 271 475 l 407 475 l 407 543 l 475 543 l 475 610 l 543 610 l 543 814 m 203 882 l 136 882 l 136 949 l 203 949 l 203 882 z "},"џ":{"ha":814,"x_min":0,"x_max":678,"o":"m 543 136 l 543 814 l 678 814 l 678 0 l 407 0 l 407 -136 l 271 -136 l 271 0 l 0 0 l 0 814 l 136 814 l 136 136 l 543 136 z "}}}
